<svg width="1460" height="263" viewBox="0 0 1460 263" fill="none" xmlns="http://www.w3.org/2000/svg">
<g clip-path="url(#clip0_678_14722)">
<path d="M144.8 85.5745C130.979 120.695 117.158 155.815 103.337 190.936C98.5596 178.533 93.7891 166.138 89.0113 153.736C81.3503 153.984 73.6894 154.233 66.0284 154.482C65.9764 154.482 65.8055 154.519 65.6718 154.67C65.5157 154.843 65.5083 155.047 65.5083 155.092C65.5083 156.29 65.5083 157.488 65.5083 158.694C65.5083 158.844 65.4934 159.643 64.8544 160.291C64.6018 160.547 64.2897 160.743 63.9479 160.849C63.6432 160.947 63.398 160.947 63.2866 160.954C61.0425 160.977 58.5235 160.984 58.5235 160.984C58.4567 160.999 58.3601 161.045 58.3006 161.127C58.3006 161.127 58.2338 161.24 58.2635 161.421C58.3229 161.708 71.2299 194.1 83.7207 225.423H120.725L178.684 85.5895H144.8V85.5745Z" fill="#21221A"/>
<path d="M211.118 85.4765C208.228 82.4249 204.408 80.9028 199.653 80.9028C194.897 80.9028 191.249 82.4324 188.358 85.4765C185.468 88.5282 184.026 92.4539 184.026 97.2612C184.026 101.805 185.468 105.602 188.358 108.654C191.249 111.706 195.009 113.228 199.653 113.228C204.297 113.228 208.228 111.706 211.118 108.654C214.009 105.602 215.45 101.805 215.45 97.2612C215.45 92.4614 214.009 88.5282 211.118 85.4765Z" fill="#21221A"/>
<path d="M215.019 121.411H184.033V225.408H215.019V121.411Z" fill="#21221A"/>
<path d="M334.384 173.801C328.514 169.13 319.783 165.814 308.191 163.87L285.231 160.17C279.881 159.266 275.942 158.061 273.416 156.569C270.89 155.077 269.626 152.771 269.626 149.652C269.626 146.276 271.373 143.714 274.865 141.959C278.357 140.203 282.927 139.329 288.574 139.329C295.113 139.329 300.463 140.791 304.625 143.714C308.786 146.638 311.089 150.631 311.535 155.695H341.183C340.44 148.295 337.802 141.868 333.27 136.413C328.737 130.957 322.644 126.776 314.99 123.852C307.337 120.928 298.531 119.467 288.574 119.467C278.617 119.467 270.221 120.83 262.939 123.558C255.657 126.286 250.01 130.114 245.997 135.049C241.985 139.984 239.978 145.696 239.978 152.191C239.978 160.246 243.025 166.801 249.118 171.865C255.211 176.928 263.608 180.304 274.308 181.992L295.708 185.495C301.504 186.407 305.665 187.703 308.191 189.391C310.718 191.079 311.981 193.55 311.981 196.79C311.981 200.43 309.975 203.12 305.962 204.875C301.95 206.631 296.897 207.505 290.804 207.505C283.224 207.505 277.02 205.915 272.19 202.735C267.36 199.556 264.871 195.306 264.722 189.979H235.074C236.263 201.537 241.576 210.655 251.013 217.346C260.45 224.037 273.565 227.375 290.358 227.375C307.151 227.375 320.34 224.195 329.48 217.828C338.62 211.468 343.189 202.901 343.189 192.119C343.189 184.591 340.254 178.488 334.384 173.809V173.801Z" fill="#21221A"/>
<path d="M436.815 181.592C436.815 186.136 435.775 190.062 433.694 193.377C431.613 196.685 428.901 199.186 425.557 200.874C422.214 202.562 418.684 203.406 414.969 203.406C408.727 203.406 403.712 201.718 399.922 198.343C396.132 194.967 394.238 189.647 394.238 182.376V121.418H363.252V187.635C363.252 196.594 365.035 204.031 368.602 209.931C372.169 215.839 377.073 220.224 383.315 223.08C389.556 225.936 396.615 227.367 404.492 227.367C412.368 227.367 418.981 225.905 425.223 222.982C431.465 220.058 436.146 216.328 439.267 211.785V225.416H467.577V121.418H436.815V181.6V181.592Z" fill="#21221A"/>
<path d="M578.479 130.174C569.785 123.038 557.636 119.459 542.032 119.459C532.521 119.459 524.087 121.087 516.731 124.327C509.374 127.574 503.504 132.148 499.12 138.055C494.736 143.963 492.247 150.94 491.652 158.995H519.517C520.111 153.155 522.341 148.612 526.205 145.364C530.068 142.117 535.344 140.497 542.032 140.497C548.719 140.497 553.623 142.124 557.19 145.364C560.757 148.612 562.54 153.155 562.54 158.995V165.226C558.973 164.835 555.63 164.548 552.509 164.352C549.388 164.156 546.119 164.059 542.7 164.059C525.461 164.059 512.235 166.718 503.021 172.046C493.807 177.373 489.2 185.096 489.2 195.223C489.2 205.35 492.99 212.749 500.569 218.596C508.148 224.436 518.105 227.36 530.44 227.36C538.614 227.36 545.673 226.094 551.617 223.562C557.562 221.03 562.466 217.361 566.33 212.561V225.416H591.519V159.975C591.519 147.248 587.173 137.317 578.479 130.174ZM562.54 188.992C562.54 194.967 560.274 199.737 555.741 203.308C551.208 206.88 545.004 208.665 537.128 208.665C531.332 208.665 526.762 207.369 523.418 204.77C520.074 202.17 518.402 198.734 518.402 194.447C518.402 189.647 520.632 186.076 525.09 183.732C529.548 181.396 536.087 180.229 544.707 180.229C547.382 180.229 550.131 180.326 552.955 180.522C555.778 180.718 558.973 181.08 562.54 181.592V188.992Z" fill="#21221A"/>
<path d="M649.478 85.5745H618.27V225.408H649.478V85.5745Z" fill="#21221A"/>
<path d="M760.492 85.5745H726.608V225.408H760.492V85.5745Z" fill="#21221A"/>
<path d="M957.997 129.496C950.567 122.812 940.833 119.467 928.795 119.467C919.878 119.467 912.299 121.124 906.057 124.432C899.816 127.74 894.317 132.253 889.561 137.965C886.589 131.997 882.094 127.416 876.075 124.236C870.056 121.057 862.96 119.467 854.786 119.467C846.613 119.467 840.074 120.928 834.278 123.852C828.482 126.776 823.429 130.897 819.119 136.217V121.418H790.586V225.416H821.572V167.381C821.572 162.19 822.538 157.835 824.47 154.331C826.401 150.827 829.076 148.13 832.494 146.246C835.913 144.362 839.702 143.42 843.863 143.42C850.699 143.42 855.864 145.462 859.356 149.554C862.848 153.645 864.595 159.387 864.595 166.794V225.416H895.357V167.381C895.357 162.19 896.36 157.835 898.367 154.331C900.373 150.827 903.085 148.13 906.503 146.246C909.921 144.362 913.637 143.42 917.649 143.42C924.485 143.42 929.65 145.462 933.142 149.554C936.634 153.645 938.38 159.387 938.38 166.794V225.416H969.143V158.226C969.143 145.764 965.428 136.187 957.997 129.503V129.496Z" fill="#21221A"/>
<path d="M1089.52 126.572C1081.64 121.833 1072.35 119.467 1061.65 119.467C1054.07 119.467 1047.09 120.928 1040.7 123.852C1034.31 126.776 1028.81 131.025 1024.2 136.609V121.418H995.67V263.008H1026.66V211.981C1031.11 217.044 1036.32 220.872 1042.26 223.472C1048.2 226.071 1054.67 227.367 1061.65 227.367C1072.5 227.367 1081.83 225.001 1089.63 220.262C1097.43 215.522 1103.53 209.095 1107.91 200.98C1112.29 192.865 1114.49 183.68 1114.49 173.424C1114.49 163.169 1112.29 153.984 1107.91 145.869C1103.53 137.754 1097.39 131.327 1089.52 126.587V126.572ZM1074.36 195.713C1068.86 200.716 1062.32 203.21 1054.74 203.21C1049.69 203.21 1045.05 202.11 1040.81 199.902C1036.58 197.695 1033.19 194.349 1030.67 189.873C1028.14 185.398 1026.88 179.912 1026.88 173.417C1026.88 166.922 1028.14 161.308 1030.67 156.961C1033.19 152.613 1036.61 149.267 1040.92 146.932C1045.23 144.596 1049.84 143.428 1054.74 143.428C1062.32 143.428 1068.86 145.99 1074.36 151.121C1079.86 156.252 1082.61 163.682 1082.61 173.424C1082.61 183.167 1079.86 190.725 1074.36 195.728V195.713Z" fill="#21221A"/>
<path d="M1217.36 130.174C1208.67 123.038 1196.52 119.459 1180.91 119.459C1171.4 119.459 1162.97 121.087 1155.61 124.327C1148.26 127.574 1142.39 132.148 1138 138.055C1133.62 143.963 1131.13 150.94 1130.54 158.995H1158.4C1158.99 153.155 1161.22 148.612 1165.09 145.364C1168.95 142.117 1174.23 140.497 1180.91 140.497C1187.6 140.497 1192.51 142.124 1196.07 145.364C1199.64 148.612 1201.42 153.155 1201.42 158.995V165.226C1197.86 164.835 1194.51 164.548 1191.39 164.352C1188.27 164.156 1185 164.059 1181.58 164.059C1164.34 164.059 1151.12 166.718 1141.9 172.046C1132.69 177.373 1128.08 185.096 1128.08 195.223C1128.08 205.35 1131.87 212.749 1139.45 218.596C1147.03 224.436 1156.99 227.36 1169.32 227.36C1177.5 227.36 1184.56 226.094 1190.5 223.562C1196.44 221.03 1201.35 217.361 1205.21 212.561V225.416H1230.4V159.975C1230.4 147.248 1226.06 137.317 1217.36 130.174ZM1201.42 188.992C1201.42 194.967 1199.16 199.737 1194.62 203.308C1190.09 206.88 1183.89 208.665 1176.01 208.665C1170.21 208.665 1165.64 207.369 1162.3 204.77C1158.96 202.17 1157.29 198.734 1157.29 194.447C1157.29 189.647 1159.51 186.076 1163.97 183.732C1168.43 181.396 1174.97 180.229 1183.59 180.229C1186.26 180.229 1189.01 180.326 1191.84 180.522C1194.66 180.718 1197.86 181.08 1201.42 181.592V188.992Z" fill="#21221A"/>
<path d="M1293.37 147.12C1297.31 144.656 1301.95 143.42 1307.3 143.42C1314.29 143.42 1320.04 145.432 1324.58 149.456C1329.11 153.479 1331.75 158.935 1332.49 165.814H1365.04C1363.85 156.463 1360.65 148.318 1355.45 141.371C1350.25 134.424 1343.49 129.036 1335.17 125.208C1326.84 121.381 1317.56 119.467 1307.3 119.467C1296.16 119.467 1286.2 121.803 1277.43 126.482C1268.66 131.153 1261.79 137.551 1256.81 145.666C1251.83 153.781 1249.34 163.034 1249.34 173.417C1249.34 183.8 1251.79 193.279 1256.7 201.462C1261.6 209.645 1268.4 216.005 1277.1 220.548C1285.79 225.092 1295.86 227.367 1307.3 227.367C1318 227.367 1327.44 225.483 1335.61 221.716C1343.79 217.949 1350.47 212.599 1355.67 205.651C1360.88 198.704 1364 190.491 1365.04 181.012H1332.49C1331.6 188.02 1328.96 193.513 1324.58 197.469C1320.19 201.432 1314.43 203.406 1307.3 203.406C1301.95 203.406 1297.31 202.208 1293.37 199.804C1289.43 197.401 1286.38 193.935 1284.23 189.384C1282.07 184.84 1281 179.52 1281 173.417C1281 167.314 1282.07 161.866 1284.23 157.45C1286.38 153.035 1289.43 149.599 1293.37 147.127V147.12Z" fill="#21221A"/>
<path d="M1460 144.588V121.411H1425.89V90.6379H1395.13V121.411H1371.06V144.588H1395.13V191.719C1395.13 199.382 1396.77 205.908 1400.03 211.295C1403.3 216.683 1407.95 220.714 1413.97 223.374C1419.99 226.034 1427.01 227.367 1435.03 227.367C1439.64 227.367 1443.84 227.005 1447.63 226.297C1451.42 225.581 1455.17 224.383 1458.89 222.696V199.126C1456.8 200.166 1454.43 200.98 1451.75 201.56C1449.08 202.148 1446.25 202.434 1443.28 202.434C1437.78 202.434 1433.51 201.108 1430.46 198.44C1427.42 195.781 1425.89 191.463 1425.89 185.488V144.588H1460Z" fill="#21221A"/>
<path d="M21.0063 0H2.22918C0.998037 0 0 1.01205 0 2.26049V21.3013C0 22.5497 0.998037 23.5618 2.22918 23.5618H21.0063C22.2374 23.5618 23.2355 22.5497 23.2355 21.3013V2.26049C23.2355 1.01205 22.2374 0 21.0063 0Z" fill="#21221A"/>
<path d="M84.2407 14.0753H65.4636C64.2324 14.0753 63.2344 15.0874 63.2344 16.3358V35.3766C63.2344 36.6251 64.2324 37.6371 65.4636 37.6371H84.2407C85.4718 37.6371 86.4698 36.6251 86.4698 35.3766V16.3358C86.4698 15.0874 85.4718 14.0753 84.2407 14.0753Z" fill="#21221A"/>
<path d="M49.101 49.2334H30.3239C29.0928 49.2334 28.0947 50.2455 28.0947 51.4939V70.5347C28.0947 71.7831 29.0928 72.7952 30.3239 72.7952H49.101C50.3322 72.7952 51.3302 71.7831 51.3302 70.5347V51.4939C51.3302 50.2455 50.3322 49.2334 49.101 49.2334Z" fill="#21221A"/>
<path d="M32.6274 61.0181H13.8503C12.6191 61.0181 11.6211 62.0301 11.6211 63.2786V82.3194C11.6211 83.5678 12.6191 84.5799 13.8503 84.5799H32.6274C33.8585 84.5799 34.8566 83.5678 34.8566 82.3194V63.2786C34.8566 62.0301 33.8585 61.0181 32.6274 61.0181Z" fill="#21221A"/>
<path d="M104.526 61.0181H85.7487C84.5176 61.0181 83.5195 62.0301 83.5195 63.2786V82.3194C83.5195 83.5678 84.5176 84.5799 85.7487 84.5799H104.526C105.757 84.5799 106.755 83.5678 106.755 82.3194V63.2786C106.755 62.0301 105.757 61.0181 104.526 61.0181Z" fill="#21221A"/>
<path d="M72.3442 89.8392H53.5671C52.3359 89.8392 51.3379 90.8513 51.3379 92.0997V111.141C51.3379 112.389 52.3359 113.401 53.5671 113.401H72.3442C73.5753 113.401 74.5734 112.389 74.5734 111.141V92.0997C74.5734 90.8513 73.5753 89.8392 72.3442 89.8392Z" fill="#21221A"/>
<path d="M88.6469 101.616H69.8698C68.6387 101.616 67.6406 102.628 67.6406 103.877V122.918C67.6406 124.166 68.6387 125.178 69.8698 125.178H88.6469C89.8781 125.178 90.8761 124.166 90.8761 122.918V103.877C90.8761 102.628 89.8781 101.616 88.6469 101.616Z" fill="#21221A"/>
<path d="M60.7231 134.582H41.946C40.7148 134.582 39.7168 135.594 39.7168 136.842V155.883C39.7168 157.132 40.7148 158.144 41.946 158.144H60.7231C61.9542 158.144 62.9523 157.132 62.9523 155.883V136.842C62.9523 135.594 61.9542 134.582 60.7231 134.582Z" fill="#21221A"/>
</g>
<defs>
<clipPath id="clip0_678_14722">
<rect width="1460" height="263" fill="white"/>
</clipPath>
</defs>
</svg>
