<svg width="1198" height="216" viewBox="0 0 1198 216" fill="none" xmlns="http://www.w3.org/2000/svg">
<g clip-path="url(#clip0_103_1471)">
<path d="M118.815 70.2817C107.475 99.1259 96.1341 127.97 84.7934 156.814C80.8729 146.628 76.9585 136.448 73.038 126.262C66.7519 126.466 60.4657 126.67 54.1795 126.875C54.1369 126.875 53.9966 126.906 53.8869 127.029C53.7588 127.172 53.7527 127.339 53.7527 127.376C53.7527 128.36 53.7527 129.344 53.7527 130.334C53.7527 130.458 53.7405 131.114 53.2162 131.646C53.0089 131.856 52.7528 132.017 52.4723 132.104C52.2223 132.184 52.0211 132.184 51.9297 132.191C50.0883 132.209 48.0214 132.215 48.0214 132.215C47.9665 132.228 47.8873 132.265 47.8385 132.333C47.8385 132.333 47.7836 132.426 47.808 132.574C47.8568 132.809 58.4475 159.413 68.6969 185.138H99.0607L146.619 70.2941H118.815V70.2817Z" fill="#21221A"/>
<path d="M173.232 70.2012C170.86 67.6949 167.726 66.4448 163.824 66.4448C159.922 66.4448 156.928 67.7011 154.557 70.2012C152.185 72.7075 151.002 75.9316 151.002 79.8798C151.002 83.6115 152.185 86.7304 154.557 89.2367C156.928 91.743 160.014 92.9931 163.824 92.9931C167.635 92.9931 170.86 91.743 173.232 89.2367C175.604 86.7304 176.787 83.6115 176.787 79.8798C176.787 75.9378 175.604 72.7075 173.232 70.2012Z" fill="#21221A"/>
<path d="M176.434 99.7139H151.009V185.126H176.434V99.7139Z" fill="#21221A"/>
<path d="M274.378 142.742C269.561 138.905 262.397 136.182 252.886 134.585L234.045 131.547C229.656 130.804 226.424 129.814 224.351 128.589C222.278 127.364 221.241 125.47 221.241 122.908C221.241 120.136 222.674 118.031 225.54 116.59C228.406 115.148 232.155 114.43 236.789 114.43C242.155 114.43 246.545 115.63 249.959 118.031C253.373 120.433 255.264 123.712 255.629 127.871H279.957C279.347 121.794 277.183 116.515 273.464 112.035C269.744 107.554 264.745 104.12 258.465 101.719C252.185 99.3177 244.959 98.1172 236.789 98.1172C228.619 98.1172 221.729 99.2373 215.754 101.477C209.779 103.718 205.145 106.861 201.852 110.915C198.56 114.968 196.914 119.659 196.914 124.993C196.914 131.609 199.414 136.993 204.413 141.151C209.413 145.31 216.303 148.082 225.083 149.469L242.642 152.346C247.398 153.095 250.813 154.159 252.886 155.546C254.959 156.932 255.995 158.962 255.995 161.623C255.995 164.612 254.349 166.821 251.057 168.263C247.764 169.705 243.618 170.422 238.618 170.422C232.399 170.422 227.308 169.117 223.345 166.505C219.382 163.894 217.339 160.403 217.217 156.028H192.89C193.865 165.521 198.225 173.009 205.968 178.505C213.711 184 224.473 186.741 238.253 186.741C252.032 186.741 262.855 184.13 270.354 178.901C277.854 173.678 281.603 166.641 281.603 157.786C281.603 151.604 279.195 146.591 274.378 142.748V142.742Z" fill="#21221A"/>
<path d="M358.427 149.14C358.427 152.872 357.574 156.096 355.866 158.819C354.159 161.536 351.934 163.59 349.19 164.976C346.446 166.363 343.55 167.056 340.502 167.056C335.38 167.056 331.264 165.67 328.155 162.897C325.045 160.125 323.491 155.756 323.491 149.784V99.7197H298.065V154.103C298.065 161.461 299.529 167.569 302.455 172.415C305.382 177.267 309.406 180.868 314.528 183.214C319.649 185.559 325.442 186.735 331.905 186.735C338.368 186.735 343.794 185.534 348.916 183.133C354.037 180.732 357.879 177.669 360.439 173.937V185.132H383.67V99.7197H358.427V149.146V149.14Z" fill="#21221A"/>
<path d="M474.67 106.911C467.537 101.05 457.568 98.1108 444.764 98.1108C436.96 98.1108 430.039 99.4475 424.003 102.109C417.967 104.776 413.15 108.532 409.553 113.384C405.955 118.236 403.913 123.966 403.425 130.581H426.289C426.777 125.785 428.606 122.054 431.777 119.387C434.947 116.719 439.276 115.389 444.764 115.389C450.251 115.389 454.275 116.726 457.202 119.387C460.129 122.054 461.592 125.785 461.592 130.581V135.699C458.665 135.377 455.922 135.142 453.361 134.981C450.8 134.82 448.117 134.74 445.313 134.74C431.167 134.74 420.314 136.925 412.754 141.3C405.193 145.675 401.413 152.018 401.413 160.335C401.413 168.652 404.523 174.729 410.742 179.532C416.961 184.328 425.131 186.729 435.252 186.729C441.959 186.729 447.751 185.689 452.629 183.61C457.507 181.531 461.531 178.517 464.702 174.575V185.132H485.371V131.386C485.371 120.934 481.804 112.777 474.67 106.911ZM461.592 155.217C461.592 160.125 459.732 164.042 456.013 166.975C452.294 169.909 447.203 171.375 440.74 171.375C435.984 171.375 432.234 170.311 429.49 168.176C426.747 166.041 425.375 163.219 425.375 159.698C425.375 155.756 427.204 152.823 430.862 150.898C434.521 148.98 439.886 148.02 446.959 148.02C449.154 148.02 451.41 148.101 453.727 148.262C456.044 148.423 458.665 148.72 461.592 149.14V155.217Z" fill="#21221A"/>
<path d="M532.928 70.2817H507.32V185.126H532.928V70.2817Z" fill="#21221A"/>
<path d="M624.02 70.2817H596.217V185.126H624.02V70.2817Z" fill="#21221A"/>
<path d="M786.082 106.354C779.985 100.865 771.997 98.1172 762.12 98.1172C754.803 98.1172 748.584 99.4786 743.463 102.195C738.341 104.912 733.829 108.619 729.927 113.31C727.488 108.409 723.799 104.646 718.861 102.034C713.922 99.4229 708.099 98.1172 701.392 98.1172C694.685 98.1172 689.32 99.3177 684.564 101.719C679.808 104.12 675.662 107.505 672.126 111.874V99.72H648.713V185.132H674.138V137.469C674.138 133.205 674.931 129.629 676.516 126.751C678.101 123.873 680.296 121.658 683.101 120.111C685.906 118.564 689.015 117.79 692.43 117.79C698.039 117.79 702.276 119.467 705.142 122.827C708.008 126.188 709.441 130.903 709.441 136.987V185.132H734.683V137.469C734.683 133.205 735.506 129.629 737.152 126.751C738.798 123.873 741.024 121.658 743.829 120.111C746.633 118.564 749.682 117.79 752.974 117.79C758.584 117.79 762.821 119.467 765.687 122.827C768.553 126.188 769.985 130.903 769.985 136.987V185.132H795.228V129.95C795.228 119.715 792.179 111.849 786.082 106.36V106.354Z" fill="#21221A"/>
<path d="M894.002 103.953C887.539 100.06 879.918 98.1172 871.138 98.1172C864.919 98.1172 859.188 99.3177 853.944 101.719C848.7 104.12 844.188 107.61 840.408 112.196V99.72H816.995V216.006H842.42V174.098C846.079 178.257 850.347 181.401 855.224 183.536C860.102 185.671 865.407 186.735 871.138 186.735C880.04 186.735 887.692 184.792 894.094 180.899C900.496 177.007 905.495 171.728 909.093 165.063C912.69 158.398 914.489 150.855 914.489 142.432C914.489 134.01 912.69 126.466 909.093 119.801C905.495 113.136 900.465 107.858 894.002 103.965V103.953ZM881.564 160.738C877.052 164.847 871.687 166.895 865.468 166.895C861.321 166.895 857.511 165.992 854.035 164.178C850.56 162.365 847.786 159.618 845.713 155.942C843.64 152.266 842.603 147.761 842.603 142.426C842.603 137.092 843.64 132.481 845.713 128.911C847.786 125.34 850.59 122.592 854.127 120.674C857.663 118.756 861.443 117.796 865.468 117.796C871.687 117.796 877.052 119.9 881.564 124.115C886.076 128.329 888.332 134.431 888.332 142.432C888.332 150.434 886.076 156.641 881.564 160.75V160.738Z" fill="#21221A"/>
<path d="M998.904 106.911C991.77 101.05 981.801 98.1108 968.997 98.1108C961.193 98.1108 954.273 99.4475 948.236 102.109C942.2 104.776 937.383 108.532 933.786 113.384C930.189 118.236 928.146 123.966 927.659 130.581H950.523C951.011 125.785 952.84 122.054 956.01 119.387C959.181 116.719 963.51 115.389 968.997 115.389C974.485 115.389 978.509 116.726 981.435 119.387C984.362 122.054 985.825 125.785 985.825 130.581V135.699C982.899 135.377 980.155 135.142 977.594 134.981C975.033 134.82 972.351 134.74 969.546 134.74C955.401 134.74 944.548 136.925 936.987 141.3C929.427 145.675 925.646 152.018 925.646 160.335C925.646 168.652 928.756 174.729 934.975 179.532C941.194 184.328 949.364 186.729 959.486 186.729C966.193 186.729 971.985 185.689 976.863 183.61C981.74 181.531 985.764 178.517 988.935 174.575V185.132H1009.6V131.386C1009.6 120.934 1006.04 112.777 998.904 106.911ZM985.825 155.217C985.825 160.125 983.966 164.042 980.246 166.975C976.527 169.909 971.436 171.375 964.973 171.375C960.217 171.375 956.468 170.311 953.724 168.176C950.98 166.041 949.608 163.219 949.608 159.698C949.608 155.756 951.437 152.823 955.096 150.898C958.754 148.98 964.12 148.02 971.192 148.02C973.387 148.02 975.643 148.101 977.96 148.262C980.277 148.423 982.899 148.72 985.825 149.14V155.217Z" fill="#21221A"/>
<path d="M1061.27 120.829C1064.5 118.805 1068.31 117.79 1072.7 117.79C1078.43 117.79 1083.16 119.442 1086.88 122.747C1090.6 126.052 1092.76 130.532 1093.37 136.182H1120.08C1119.1 128.502 1116.48 121.813 1112.21 116.107C1107.94 110.401 1102.4 105.976 1095.57 102.833C1088.74 99.689 1081.12 98.1172 1072.7 98.1172C1063.56 98.1172 1055.39 100.036 1048.19 103.879C1041 107.715 1035.36 112.969 1031.27 119.634C1027.19 126.299 1025.15 133.899 1025.15 142.426C1025.15 150.954 1027.16 158.739 1031.18 165.459C1035.21 172.18 1040.78 177.403 1047.92 181.135C1055.05 184.866 1063.31 186.735 1072.7 186.735C1081.48 186.735 1089.23 185.188 1095.93 182.094C1102.64 179 1108.13 174.606 1112.4 168.9C1116.66 163.194 1119.22 156.449 1120.08 148.664H1093.37C1092.64 154.419 1090.48 158.931 1086.88 162.18C1083.28 165.435 1078.56 167.056 1072.7 167.056C1068.31 167.056 1064.5 166.072 1061.27 164.098C1058.04 162.124 1055.54 159.277 1053.77 155.539C1052 151.808 1051.12 147.439 1051.12 142.426C1051.12 137.414 1052 132.939 1053.77 129.313C1055.54 125.687 1058.04 122.865 1061.27 120.835V120.829Z" fill="#21221A"/>
<path d="M1198 118.749V99.7139H1170.01V74.4404H1144.77V99.7139H1125.02V118.749H1144.77V157.458C1144.77 163.751 1146.11 169.111 1148.8 173.535C1151.48 177.96 1155.29 181.271 1160.23 183.455C1165.17 185.64 1170.93 186.735 1177.51 186.735C1181.29 186.735 1184.74 186.438 1187.85 185.856C1190.96 185.269 1194.04 184.285 1197.09 182.898V163.541C1195.38 164.395 1193.43 165.063 1191.23 165.54C1189.04 166.023 1186.72 166.258 1184.28 166.258C1179.77 166.258 1176.26 165.169 1173.76 162.978C1171.26 160.793 1170.01 157.247 1170.01 152.34V118.749H1198Z" fill="#21221A"/>
<path d="M17.2367 0H1.82915C0.818937 0 0 0.831193 0 1.85652V17.4946C0 18.5199 0.818937 19.3511 1.82915 19.3511H17.2367C18.2469 19.3511 19.0658 18.5199 19.0658 17.4946V1.85652C19.0658 0.831193 18.2469 0 17.2367 0Z" fill="#21221A"/>
<path d="M69.1234 11.5601H53.7159C52.7057 11.5601 51.8867 12.3913 51.8867 13.4166V29.0547C51.8867 30.08 52.7057 30.9112 53.7159 30.9112H69.1234C70.1336 30.9112 70.9525 30.08 70.9525 29.0547V13.4166C70.9525 12.3913 70.1336 11.5601 69.1234 11.5601Z" fill="#21221A"/>
<path d="M40.2904 40.4351H24.8829C23.8726 40.4351 23.0537 41.2663 23.0537 42.2916V57.9297C23.0537 58.955 23.8726 59.7862 24.8829 59.7862H40.2904C41.3006 59.7862 42.1195 58.955 42.1195 57.9297V42.2916C42.1195 41.2663 41.3006 40.4351 40.2904 40.4351Z" fill="#21221A"/>
<path d="M26.7728 50.1138H11.3653C10.3551 50.1138 9.53613 50.945 9.53613 51.9703V67.6084C9.53613 68.6337 10.3551 69.4649 11.3653 69.4649H26.7728C27.783 69.4649 28.6019 68.6337 28.6019 67.6084V51.9703C28.6019 50.945 27.783 50.1138 26.7728 50.1138Z" fill="#21221A"/>
<path d="M85.7689 50.1138H70.3614C69.3512 50.1138 68.5322 50.945 68.5322 51.9703V67.6084C68.5322 68.6337 69.3512 69.4649 70.3614 69.4649H85.7689C86.7791 69.4649 87.598 68.6337 87.598 67.6084V51.9703C87.598 50.945 86.7791 50.1138 85.7689 50.1138Z" fill="#21221A"/>
<path d="M59.3617 73.7842H43.9541C42.9439 73.7842 42.125 74.6154 42.125 75.6407V91.2788C42.125 92.3041 42.9439 93.1353 43.9541 93.1353H59.3617C60.3719 93.1353 61.1908 92.3041 61.1908 91.2788V75.6407C61.1908 74.6154 60.3719 73.7842 59.3617 73.7842Z" fill="#21221A"/>
<path d="M72.7386 83.457H57.3311C56.3209 83.457 55.502 84.2882 55.502 85.3136V100.952C55.502 101.977 56.3209 102.808 57.3311 102.808H72.7386C73.7488 102.808 74.5678 101.977 74.5678 100.952V85.3136C74.5678 84.2882 73.7488 83.457 72.7386 83.457Z" fill="#21221A"/>
<path d="M49.8255 110.531H34.418C33.4078 110.531 32.5889 111.362 32.5889 112.388V128.026C32.5889 129.051 33.4078 129.882 34.418 129.882H49.8255C50.8357 129.882 51.6547 129.051 51.6547 128.026V112.388C51.6547 111.362 50.8357 110.531 49.8255 110.531Z" fill="#21221A"/>
</g>
<defs>
<clipPath id="clip0_103_1471">
<rect width="1198" height="216" fill="white"/>
</clipPath>
</defs>
</svg>
