<svg width="349" height="62" viewBox="0 0 349 62" fill="none" xmlns="http://www.w3.org/2000/svg">
<g clip-path="url(#clip0_518_22576)">
<path d="M34.6129 20.1735C31.3092 28.4528 28.0054 36.7321 24.7016 45.0115C23.5595 42.0877 22.4192 39.1657 21.2771 36.2419C19.4458 36.3005 17.6145 36.3591 15.7833 36.4177C15.7708 36.4177 15.73 36.4266 15.698 36.4621C15.6607 36.503 15.6589 36.551 15.6589 36.5616C15.6589 36.844 15.6589 37.1265 15.6589 37.4107C15.6589 37.4462 15.6554 37.6345 15.5026 37.7873C15.4422 37.8477 15.3676 37.8938 15.2859 37.9187C15.2131 37.9418 15.1545 37.9418 15.1278 37.9436C14.5914 37.9489 13.9893 37.9507 13.9893 37.9507C13.9733 37.9542 13.9502 37.9649 13.936 37.9844C13.936 37.9844 13.92 38.0111 13.9271 38.0537C13.9413 38.1212 17.0266 45.7575 20.0124 53.1416H28.858L42.7125 20.177H34.6129V20.1735Z" fill="#21221A"/>
<path d="M50.4658 20.1504C49.7749 19.431 48.8619 19.0721 47.7251 19.0721C46.5884 19.0721 45.7162 19.4327 45.0253 20.1504C44.3343 20.8698 43.9897 21.7952 43.9897 22.9285C43.9897 23.9996 44.3343 24.8949 45.0253 25.6143C45.7162 26.3337 46.615 26.6925 47.7251 26.6925C48.8353 26.6925 49.7749 26.3337 50.4658 25.6143C51.1568 24.8949 51.5014 23.9996 51.5014 22.9285C51.5014 21.797 51.1568 20.8698 50.4658 20.1504Z" fill="#21221A"/>
<path d="M51.398 28.6216H43.9912V53.1381H51.398V28.6216Z" fill="#21221A"/>
<path d="M79.9315 40.9721C78.5283 39.8708 76.4413 39.0892 73.6704 38.6309L68.1819 37.7588C66.903 37.5456 65.9616 37.2614 65.3577 36.9097C64.7538 36.558 64.4518 36.0145 64.4518 35.2791C64.4518 34.4833 64.8692 33.8793 65.704 33.4655C66.5389 33.0516 67.6312 32.8455 68.9811 32.8455C70.5442 32.8455 71.8231 33.1901 72.8178 33.8793C73.8125 34.5685 74.3631 35.51 74.4697 36.7037H81.5568C81.3791 34.9593 80.7486 33.4441 79.6651 32.1581C78.5816 30.8721 77.1251 29.8862 75.2956 29.197C73.4661 28.5078 71.3613 28.1632 68.9811 28.1632C66.601 28.1632 64.5939 28.4847 62.8532 29.1277C61.1125 29.7708 59.7626 30.6731 58.8034 31.8366C57.8443 33.0001 57.3647 34.3465 57.3647 35.8777C57.3647 37.7765 58.0929 39.3219 59.5494 40.5156C61.0059 41.7093 63.0131 42.5051 65.5708 42.903L70.6863 43.7289C72.0718 43.9439 73.0665 44.2494 73.6704 44.6473C74.2743 45.0452 74.5762 45.6278 74.5762 46.3916C74.5762 47.2496 74.0967 47.8837 73.1375 48.2976C72.1783 48.7115 70.9705 48.9175 69.514 48.9175C67.7023 48.9175 66.2191 48.5427 65.0646 47.7931C63.91 47.0435 63.315 46.0417 63.2795 44.7858H56.1924C56.4766 47.5107 57.7466 49.66 60.0024 51.2374C62.2582 52.8147 65.3932 53.6016 69.4074 53.6016C73.4217 53.6016 76.5745 52.852 78.7592 51.351C80.944 49.8518 82.0363 47.8322 82.0363 45.2903C82.0363 43.5158 81.3347 42.077 79.9315 40.9739V40.9721Z" fill="#21221A"/>
<path d="M104.417 42.8088C104.417 43.8799 104.168 44.8054 103.671 45.587C103.173 46.3668 102.525 46.9565 101.726 47.3544C100.926 47.7523 100.083 47.9512 99.1945 47.9512C97.7025 47.9512 96.5035 47.5533 95.5977 46.7575C94.6918 45.9618 94.2389 44.7077 94.2389 42.9936V28.6233H86.832V44.2334C86.832 46.3454 87.2583 48.0986 88.1109 49.4895C88.9635 50.8821 90.1358 51.9159 91.6278 52.5891C93.1198 53.2624 94.8072 53.5999 96.69 53.5999C98.5728 53.5999 100.154 53.2552 101.646 52.566C103.138 51.8768 104.257 50.9976 105.003 49.9265V53.1398H111.77V28.6233H104.417V42.8106V42.8088Z" fill="#21221A"/>
<path d="M138.28 30.6874C136.202 29.0052 133.298 28.1615 129.568 28.1615C127.294 28.1615 125.278 28.5452 123.52 29.309C121.761 30.0746 120.358 31.1528 119.31 32.5454C118.262 33.938 117.667 35.5829 117.525 37.4818H124.186C124.328 36.1051 124.861 35.034 125.785 34.2684C126.708 33.5028 127.969 33.1209 129.568 33.1209C131.166 33.1209 132.339 33.5046 133.191 34.2684C134.044 35.034 134.47 36.1051 134.47 37.4818V38.9508C133.618 38.8584 132.818 38.7909 132.072 38.7447C131.326 38.6985 130.545 38.6754 129.728 38.6754C125.607 38.6754 122.445 39.3025 120.243 40.5583C118.04 41.8141 116.939 43.6349 116.939 46.0222C116.939 48.4096 117.845 50.1539 119.657 51.5323C121.468 52.9089 123.848 53.5981 126.797 53.5981C128.751 53.5981 130.438 53.2997 131.859 52.7029C133.28 52.106 134.452 51.241 135.376 50.1095V53.1398H141.397V37.7127C141.397 34.7125 140.358 32.3713 138.28 30.6874ZM134.47 44.5532C134.47 45.9618 133.928 47.0862 132.845 47.9282C131.761 48.7701 130.278 49.1911 128.396 49.1911C127.01 49.1911 125.918 48.8856 125.118 48.2728C124.319 47.66 123.919 46.85 123.919 45.8392C123.919 44.7077 124.452 43.8658 125.518 43.3133C126.584 42.7627 128.147 42.4874 130.207 42.4874C130.847 42.4874 131.504 42.5105 132.179 42.5566C132.854 42.6028 133.618 42.6881 134.47 42.8089V44.5532Z" fill="#21221A"/>
<path d="M155.252 20.1735H147.792V53.138H155.252V20.1735Z" fill="#21221A"/>
<path d="M181.789 20.1735H173.689V53.138H181.789V20.1735Z" fill="#21221A"/>
<path d="M229 30.5275C227.224 28.9519 224.897 28.1632 222.02 28.1632C219.888 28.1632 218.076 28.554 216.584 29.3338C215.092 30.1136 213.778 31.1776 212.641 32.524C211.931 31.1172 210.856 30.0372 209.417 29.2876C207.979 28.538 206.282 28.1632 204.328 28.1632C202.375 28.1632 200.812 28.5078 199.426 29.197C198.041 29.8862 196.833 30.8579 195.803 32.1119V28.6233H188.982V53.1398H196.389V39.4587C196.389 38.2348 196.62 37.2081 197.081 36.3822C197.543 35.5562 198.183 34.9203 199 34.4762C199.817 34.0321 200.723 33.8101 201.717 33.8101C203.352 33.8101 204.586 34.2914 205.421 35.256C206.256 36.2205 206.673 37.574 206.673 39.3202V53.1398H214.027V39.4587C214.027 38.2348 214.266 37.2081 214.746 36.3822C215.226 35.5562 215.874 34.9203 216.691 34.4762C217.508 34.0321 218.396 33.8101 219.355 33.8101C220.989 33.8101 222.224 34.2914 223.059 35.256C223.893 36.2205 224.311 37.574 224.311 39.3202V53.1398H231.664V37.3005C231.664 34.3625 230.776 32.1048 229 30.5292V30.5275Z" fill="#21221A"/>
<path d="M260.439 29.8383C258.557 28.721 256.336 28.1632 253.779 28.1632C251.967 28.1632 250.297 28.5078 248.77 29.197C247.242 29.8862 245.928 30.8881 244.827 32.2043V28.6233H238.006V62.0017H245.413V49.9726C246.478 51.1663 247.722 52.0687 249.143 52.6815C250.564 53.2943 252.109 53.5998 253.779 53.5998C256.372 53.5998 258.601 53.0421 260.466 51.9248C262.331 50.8075 263.788 49.2923 264.836 47.3792C265.884 45.4662 266.408 43.3008 266.408 40.8833C266.408 38.4658 265.884 36.3004 264.836 34.3874C263.788 32.4743 262.322 30.9591 260.439 29.8418V29.8383ZM256.816 46.1376C255.502 47.3171 253.939 47.905 252.127 47.905C250.919 47.905 249.809 47.6457 248.796 47.1252C247.784 46.6048 246.976 45.8161 246.372 44.761C245.768 43.7058 245.466 42.4127 245.466 40.8815C245.466 39.3503 245.768 38.027 246.372 37.0021C246.976 35.9772 247.793 35.1885 248.823 34.6378C249.853 34.0872 250.954 33.8118 252.127 33.8118C253.939 33.8118 255.502 34.4158 256.816 35.6254C258.13 36.8351 258.788 38.5865 258.788 40.8833C258.788 43.1801 258.13 44.9617 256.816 46.1412V46.1376Z" fill="#21221A"/>
<path d="M290.999 30.6874C288.921 29.0052 286.017 28.1615 282.287 28.1615C280.014 28.1615 277.998 28.5452 276.239 29.309C274.481 30.0746 273.077 31.1528 272.029 32.5454C270.981 33.938 270.386 35.5829 270.244 37.4818H276.905C277.047 36.1051 277.58 35.034 278.504 34.2684C279.427 33.5028 280.689 33.1209 282.287 33.1209C283.886 33.1209 285.058 33.5046 285.911 34.2684C286.763 35.034 287.189 36.1051 287.189 37.4818V38.9508C286.337 38.8584 285.538 38.7909 284.792 38.7447C284.046 38.6985 283.264 38.6754 282.447 38.6754C278.326 38.6754 275.164 39.3025 272.962 40.5583C270.759 41.8141 269.658 43.6349 269.658 46.0222C269.658 48.4096 270.564 50.1539 272.376 51.5323C274.188 52.9089 276.568 53.5981 279.516 53.5981C281.47 53.5981 283.157 53.2997 284.578 52.7029C285.999 52.106 287.172 51.241 288.095 50.1095V53.1398H294.117V37.7127C294.117 34.7125 293.078 32.3713 290.999 30.6874ZM287.189 44.5532C287.189 45.9618 286.648 47.0862 285.564 47.9282C284.481 48.7701 282.998 49.1911 281.115 49.1911C279.729 49.1911 278.637 48.8856 277.838 48.2728C277.038 47.66 276.639 46.85 276.639 45.8392C276.639 44.7077 277.172 43.8658 278.237 43.3133C279.303 42.7627 280.866 42.4874 282.927 42.4874C283.566 42.4874 284.223 42.5105 284.898 42.5566C285.573 42.6028 286.337 42.6881 287.189 42.8089V44.5532Z" fill="#21221A"/>
<path d="M309.168 34.6822C310.11 34.1014 311.22 33.8101 312.499 33.8101C314.168 33.8101 315.545 34.2843 316.628 35.2329C317.712 36.1814 318.342 37.4675 318.52 39.0892H326.3C326.016 36.8848 325.252 34.9647 324.008 33.3269C322.765 31.6892 321.149 30.4191 319.159 29.5167C317.17 28.6144 314.95 28.1632 312.499 28.1632C309.834 28.1632 307.454 28.7139 305.358 29.8169C303.262 30.9183 301.619 32.4263 300.429 34.3394C299.239 36.2525 298.644 38.4338 298.644 40.8815C298.644 43.3293 299.23 45.5639 300.403 47.4929C301.575 49.422 303.2 50.9212 305.278 51.9923C307.356 53.0634 309.763 53.5998 312.499 53.5998C315.056 53.5998 317.312 53.1558 319.266 52.2676C321.22 51.3795 322.818 50.1183 324.062 48.4805C325.305 46.8428 326.051 44.9066 326.3 42.672H318.52C318.307 44.324 317.676 45.6189 316.628 46.5515C315.58 47.4858 314.204 47.9512 312.499 47.9512C311.22 47.9512 310.11 47.6688 309.168 47.1021C308.227 46.5355 307.498 45.7184 306.983 44.6455C306.468 43.5744 306.211 42.3203 306.211 40.8815C306.211 39.4427 306.468 38.1585 306.983 37.1175C307.498 36.0766 308.227 35.2666 309.168 34.684V34.6822Z" fill="#21221A"/>
<path d="M349 34.0854V28.6215H340.847V21.3671H333.493V28.6215H327.738V34.0854H333.493V45.1961C333.493 47.0026 333.884 48.5409 334.666 49.811C335.447 51.081 336.557 52.0313 337.996 52.6584C339.435 53.2854 341.113 53.5998 343.032 53.5998C344.133 53.5998 345.136 53.5146 346.042 53.3476C346.948 53.1788 347.845 52.8964 348.733 52.4985V46.9422C348.236 47.1874 347.667 47.3792 347.028 47.516C346.389 47.6545 345.714 47.722 345.003 47.722C343.689 47.722 342.667 47.4094 341.939 46.7806C341.211 46.1536 340.847 45.1357 340.847 43.7271V34.0854H349Z" fill="#21221A"/>
<path d="M5.02137 0H0.532865C0.238572 0 0 0.238583 0 0.53289V5.0216C0 5.31591 0.238572 5.55449 0.532865 5.55449H5.02137C5.31566 5.55449 5.55423 5.31591 5.55423 5.0216V0.53289C5.55423 0.238583 5.31566 0 5.02137 0Z" fill="#21221A"/>
<path d="M20.1371 3.31812H15.6486C15.3543 3.31812 15.1157 3.5567 15.1157 3.85101V8.33972C15.1157 8.63402 15.3543 8.87261 15.6486 8.87261H20.1371C20.4314 8.87261 20.67 8.63402 20.67 8.33972V3.85101C20.67 3.5567 20.4314 3.31812 20.1371 3.31812Z" fill="#21221A"/>
<path d="M11.7372 11.6063H7.24869C6.95439 11.6063 6.71582 11.8449 6.71582 12.1392V16.6279C6.71582 16.9222 6.95439 17.1608 7.24869 17.1608H11.7372C12.0315 17.1608 12.2701 16.9222 12.2701 16.6279V12.1392C12.2701 11.8449 12.0315 11.6063 11.7372 11.6063Z" fill="#21221A"/>
<path d="M7.7992 14.3845H3.3107C3.0164 14.3845 2.77783 14.6231 2.77783 14.9174V19.4061C2.77783 19.7004 3.0164 19.939 3.3107 19.939H7.7992C8.09349 19.939 8.33206 19.7004 8.33206 19.4061V14.9174C8.33206 14.6231 8.09349 14.3845 7.7992 14.3845Z" fill="#21221A"/>
<path d="M24.9862 14.3845H20.4977C20.2034 14.3845 19.9648 14.6231 19.9648 14.9174V19.4061C19.9648 19.7004 20.2034 19.939 20.4977 19.939H24.9862C25.2805 19.939 25.5191 19.7004 25.5191 19.4061V14.9174C25.5191 14.6231 25.2805 14.3845 24.9862 14.3845Z" fill="#21221A"/>
<path d="M17.2933 21.1788H12.8048C12.5105 21.1788 12.272 21.4174 12.272 21.7117V26.2004C12.272 26.4947 12.5105 26.7333 12.8048 26.7333H17.2933C17.5876 26.7333 17.8262 26.4947 17.8262 26.2004V21.7117C17.8262 21.4174 17.5876 21.1788 17.2933 21.1788Z" fill="#21221A"/>
<path d="M21.1903 23.9552H16.7018C16.4075 23.9552 16.1689 24.1938 16.1689 24.4881V28.9768C16.1689 29.2711 16.4075 29.5097 16.7018 29.5097H21.1903C21.4846 29.5097 21.7232 29.2711 21.7232 28.9768V24.4881C21.7232 24.1938 21.4846 23.9552 21.1903 23.9552Z" fill="#21221A"/>
<path d="M14.515 31.7266H10.0265C9.73222 31.7266 9.49365 31.9651 9.49365 32.2595V36.7482C9.49365 37.0425 9.73222 37.2811 10.0265 37.2811H14.515C14.8093 37.2811 15.0479 37.0425 15.0479 36.7482V32.2595C15.0479 31.9651 14.8093 31.7266 14.515 31.7266Z" fill="#21221A"/>
</g>
<defs>
<clipPath id="clip0_518_22576">
<rect width="349" height="62" fill="white"/>
</clipPath>
</defs>
</svg>
