<svg width="39" height="39" viewBox="0 0 39 39" fill="none" xmlns="http://www.w3.org/2000/svg">
<circle cx="19.5" cy="19.5" r="19.5" fill="#CFFF5C"/>
<g clip-path="url(#clip0_1281_5215)">
<path d="M25.8282 16.25C24.1265 20.4567 22.4248 24.6634 20.7232 28.87C20.1349 27.3845 19.5476 25.8998 18.9593 24.4143C18.0161 24.444 17.0728 24.4738 16.1296 24.5036C16.1232 24.5036 16.1021 24.5081 16.0857 24.5262C16.0665 24.5469 16.0655 24.5713 16.0655 24.5767C16.0655 24.7202 16.0655 24.8637 16.0655 25.0081C16.0655 25.0262 16.0637 25.1218 15.985 25.1995C15.9539 25.2301 15.9155 25.2536 15.8734 25.2662C15.8359 25.278 15.8057 25.278 15.792 25.2789C15.5157 25.2816 15.2056 25.2825 15.2056 25.2825C15.1973 25.2843 15.1854 25.2897 15.1781 25.2996C15.1781 25.2996 15.1699 25.3132 15.1735 25.3348C15.1809 25.3691 16.77 29.2491 18.3079 33.0009H22.864L30 16.2518H25.8282V16.25Z" fill="#060604"/>
<path d="M10.5864 6H8.27446C8.12288 6 8 6.12122 8 6.27076V8.55144C8 8.70098 8.12288 8.8222 8.27446 8.8222H10.5864C10.7379 8.8222 10.8608 8.70098 10.8608 8.55144V6.27076C10.8608 6.12122 10.7379 6 10.5864 6Z" fill="#060604"/>
<path d="M18.372 7.68591H16.0601C15.9085 7.68591 15.7856 7.80714 15.7856 7.95667V10.2374C15.7856 10.3869 15.9085 10.5081 16.0601 10.5081H18.372C18.5236 10.5081 18.6465 10.3869 18.6465 10.2374V7.95667C18.6465 7.80714 18.5236 7.68591 18.372 7.68591Z" fill="#060604"/>
<path d="M14.0455 11.8971H11.7336C11.582 11.8971 11.4591 12.0183 11.4591 12.1679V14.4485C11.4591 14.5981 11.582 14.7193 11.7336 14.7193H14.0455C14.197 14.7193 14.3199 14.5981 14.3199 14.4485V12.1679C14.3199 12.0183 14.197 11.8971 14.0455 11.8971Z" fill="#060604"/>
<path d="M12.0173 13.3087H9.70537C9.55379 13.3087 9.43091 13.4299 9.43091 13.5795V15.8602C9.43091 16.0097 9.55379 16.1309 9.70537 16.1309H12.0173C12.1688 16.1309 12.2917 16.0097 12.2917 15.8602V13.5795C12.2917 13.4299 12.1688 13.3087 12.0173 13.3087Z" fill="#060604"/>
<path d="M20.8696 13.3087H18.5577C18.4061 13.3087 18.2832 13.4299 18.2832 13.5795V15.8602C18.2832 16.0097 18.4061 16.1309 18.5577 16.1309H20.8696C21.0211 16.1309 21.144 16.0097 21.144 15.8602V13.5795C21.144 13.4299 21.0211 13.3087 20.8696 13.3087Z" fill="#060604"/>
<path d="M16.9073 16.7609H14.5954C14.4438 16.7609 14.3209 16.8821 14.3209 17.0316V19.3123C14.3209 19.4618 14.4438 19.5831 14.5954 19.5831H16.9073C17.0589 19.5831 17.1817 19.4618 17.1817 19.3123V17.0316C17.1817 16.8821 17.0589 16.7609 16.9073 16.7609Z" fill="#060604"/>
<path d="M18.9145 18.1715H16.6026C16.451 18.1715 16.3281 18.2927 16.3281 18.4423V20.723C16.3281 20.8725 16.451 20.9937 16.6026 20.9937H18.9145C19.0661 20.9937 19.1889 20.8725 19.1889 20.723V18.4423C19.1889 18.2927 19.0661 18.1715 18.9145 18.1715Z" fill="#060604"/>
<path d="M15.4764 22.12H13.1645C13.0129 22.12 12.89 22.2412 12.89 22.3908V24.6714C12.89 24.821 13.0129 24.9422 13.1645 24.9422H15.4764C15.6279 24.9422 15.7508 24.821 15.7508 24.6714V22.3908C15.7508 22.2412 15.6279 22.12 15.4764 22.12Z" fill="#060604"/>
</g>
<defs>
<clipPath id="clip0_1281_5215">
<rect width="22" height="27" fill="white" transform="translate(8 6)"/>
</clipPath>
</defs>
</svg>
