<svg width="20" height="15" viewBox="0 0 20 15" fill="none" xmlns="http://www.w3.org/2000/svg">
<path d="M10 7.5V14H5.5V10.5V7.5H10Z" fill="black"/>
<path d="M5.5 10.5V14H1V10.5H5.5Z" fill="black"/>
<path d="M19 1V14H14.5V4.5V1H19Z" fill="black"/>
<path d="M14.5 4.5V14H10V7.5V4.5H14.5Z" fill="black"/>
<path d="M19 14V1H14.5V4.5M19 14H10M19 14H14.5M14.5 14V4.5M14.5 14H10M14.5 4.5H10V7.5M10 14V7.5M10 14H5.5M10 7.5H5.5V10.5M5.5 14V10.5M5.5 14H1V10.5H5.5" stroke="black" stroke-linejoin="round"/>
<path d="M19 14V1H14.5V4.5M19 14H10M19 14H14.5M14.5 14V4.5M14.5 14H10M14.5 4.5H10V7.5M10 14V7.5M10 14H5.5M10 7.5H5.5V10.5M5.5 14V10.5M5.5 14H1V10.5H5.5" stroke="black" stroke-linejoin="round"/>
</svg>
