<svg width="333" height="250" viewBox="0 0 333 250" fill="none" xmlns="http://www.w3.org/2000/svg">
<rect x="0.833008" y="75" width="140.833" height="126.667" fill="#CFFF5C"/>
<rect x="64.167" y="91.6667" width="125.833" height="158.333" fill="#CFFF5C"/>
<rect x="190" y="59.1667" width="79.1667" height="95" fill="#CFFF5C"/>
<rect x="268.333" y="91.6667" width="63.3333" height="158.333" fill="#CFFF5C"/>
<g clip-path="url(#clip0_499_6366)">
<path d="M63 32.5L143 0L141.73 88H63V32.5Z" fill="#CFFF5C"/>
<path d="M0.349871 75.1407L0.330078 201.904H63.5052C63.547 170.199 63.5866 138.494 63.6284 106.789V249.195C105.953 249.353 148.278 249.51 190.605 249.668V154.368L221.772 154.357" stroke="black" stroke-width="2" stroke-miterlimit="10"/>
<path d="M237.538 154.31H269.254V249.668C290.341 249.576 311.429 249.483 332.517 249.391V90.9263L269.172 91.0406C269.256 80.4891 269.339 69.9353 269.421 59.3838H190.018V91.1616C174.167 91.1198 158.313 91.078 142.461 91.0362C142.596 60.8528 142.728 30.6694 142.862 0.486008C116.404 10.9012 89.9434 21.3164 63.4854 31.7294C63.4854 46.1427 63.4854 60.5559 63.4854 74.9692C63.4854 80.3242 63.4854 85.6791 63.4854 91.034" stroke="black" stroke-width="2" stroke-miterlimit="10"/>
<path d="M0.350098 75.1407C21.396 75.0836 42.4397 75.0264 63.4857 74.967" stroke="black" stroke-width="2" stroke-miterlimit="10"/>
<path d="M269.254 154.31V110.917" stroke="black" stroke-width="2" stroke-miterlimit="10"/>
<path d="M190.605 202.349C169.278 202.25 147.95 202.151 126.623 202.052" stroke="black" stroke-width="2" stroke-miterlimit="10"/>
<path d="M111.108 202.201C95.2389 202.102 79.372 202.003 63.5029 201.904" stroke="black" stroke-width="2" stroke-miterlimit="10"/>
<path fill-rule="evenodd" clip-rule="evenodd" d="M122.804 223.344V236.05C122.804 236.296 122.706 236.532 122.533 236.706C122.359 236.88 122.124 236.978 121.878 236.979C121.633 236.979 121.397 236.881 121.223 236.707C121.049 236.532 120.951 236.296 120.951 236.05V228.579H120.586V236.05C120.585 236.296 120.487 236.532 120.313 236.706C120.14 236.88 119.904 236.978 119.658 236.979C119.413 236.978 119.177 236.88 119.003 236.706C118.83 236.532 118.732 236.296 118.731 236.05V223.344H118.406V228.014C118.406 228.2 118.331 228.378 118.2 228.509C118.068 228.641 117.89 228.715 117.704 228.715C117.518 228.715 117.34 228.641 117.208 228.509C117.076 228.378 117.002 228.2 117 228.014V222.988C117 222.176 117.275 221.598 117.774 221.221C118.633 220.571 122.876 220.571 123.735 221.221C124.236 221.598 124.514 222.171 124.512 222.988V228.014C124.511 228.199 124.436 228.377 124.305 228.508C124.174 228.64 123.997 228.714 123.811 228.715C123.625 228.715 123.447 228.641 123.315 228.509C123.183 228.377 123.108 228.198 123.108 228.012V223.344H122.804ZM134.48 222.793C134.493 222.822 134.503 222.851 134.511 222.881L135.974 228.046C135.999 228.137 136.007 228.233 135.995 228.327C135.984 228.421 135.955 228.511 135.908 228.594C135.862 228.677 135.8 228.749 135.726 228.808C135.651 228.866 135.566 228.91 135.475 228.935C135.384 228.961 135.289 228.968 135.195 228.957C135.101 228.946 135.01 228.916 134.928 228.87C134.761 228.776 134.639 228.62 134.587 228.436L133.147 223.339H133.126H132.828V223.664L134.735 231.265H132.828V236.047C132.827 236.293 132.729 236.529 132.555 236.703C132.381 236.877 132.146 236.975 131.9 236.976C131.654 236.976 131.419 236.878 131.245 236.703C131.071 236.529 130.973 236.293 130.973 236.047V231.268H130.608V236.05C130.607 236.296 130.509 236.532 130.336 236.707C130.162 236.881 129.926 236.979 129.68 236.979C129.435 236.978 129.199 236.88 129.026 236.706C128.852 236.532 128.755 236.296 128.754 236.05V231.268H126.73L128.753 223.472V223.35H128.428H128.401L126.972 228.436C126.914 228.612 126.79 228.759 126.626 228.846C126.462 228.934 126.271 228.954 126.092 228.904C125.914 228.854 125.761 228.737 125.667 228.577C125.572 228.417 125.542 228.227 125.584 228.046L127.003 222.991H126.988C127.205 222.179 127.387 221.601 127.887 221.224C128.746 220.575 132.899 220.575 133.759 221.224C134.221 221.572 134.302 222.036 134.485 222.797L134.48 222.793ZM130.784 217.021C131.116 217.022 131.439 217.122 131.714 217.307C131.989 217.492 132.203 217.755 132.329 218.062C132.455 218.369 132.487 218.707 132.422 219.032C132.356 219.357 132.196 219.656 131.961 219.89C131.727 220.124 131.428 220.284 131.103 220.348C130.778 220.412 130.441 220.379 130.135 220.251C129.829 220.124 129.567 219.909 129.383 219.633C129.199 219.357 129.101 219.032 129.101 218.7C129.101 218.479 129.145 218.26 129.229 218.056C129.314 217.852 129.438 217.666 129.595 217.51C129.751 217.354 129.937 217.231 130.141 217.147C130.345 217.063 130.564 217.02 130.784 217.021ZM120.756 217.021C121.088 217.021 121.412 217.119 121.688 217.304C121.964 217.488 122.178 217.751 122.305 218.058C122.432 218.364 122.465 218.702 122.401 219.028C122.336 219.354 122.176 219.653 121.942 219.888C121.707 220.123 121.409 220.283 121.083 220.347C120.758 220.412 120.421 220.379 120.115 220.252C119.808 220.125 119.546 219.909 119.362 219.633C119.178 219.357 119.079 219.032 119.079 218.7C119.079 218.255 119.256 217.828 119.571 217.513C119.885 217.198 120.312 217.021 120.756 217.021Z" fill="black"/>
<path fill-rule="evenodd" clip-rule="evenodd" d="M40.379 126.601C39.2975 125.519 37.8799 124.978 36.4607 124.978C35.0432 124.978 33.6256 125.519 32.5441 126.601C32.2652 126.88 32.0221 127.182 31.8149 127.5C31.9275 129.051 33.0694 130.774 34.5603 132.193C36.1002 133.656 37.9925 134.778 39.5193 135.056C39.552 135.062 39.5846 135.067 39.6172 135.072C39.8848 134.886 40.1392 134.674 40.3774 134.436C41.4589 133.354 42.0005 131.937 42.0005 130.519C42.0005 129.1 41.4605 127.682 40.379 126.601ZM22.7696 143.514C22.5266 143.775 22.339 144.072 22.1987 144.401C21.9148 145.065 21.8643 145.163 22.5331 144.855C22.8822 144.693 23.2035 144.488 23.489 144.233C23.794 144.517 24.0811 144.664 24.4123 144.706C24.7516 144.75 25.0925 144.675 25.5248 144.527C26.9358 144.041 31.7986 140.064 34.8262 137.587C35.6027 136.953 36.2536 136.419 36.7185 136.052C37.2976 136.026 37.8718 135.909 38.4215 135.702C36.942 135.158 35.3287 134.108 33.978 132.824C32.7301 131.638 31.6958 130.245 31.1771 128.852C31.0238 129.338 30.9406 129.839 30.9243 130.343C30.6062 130.744 30.1413 131.318 29.5768 132.017C27.1088 135.065 22.7973 140.388 22.458 141.514C22.3373 141.915 22.2704 142.249 22.308 142.577C22.3471 142.913 22.4858 143.212 22.7696 143.514ZM35.4477 135.964C35.1084 136.24 34.712 136.565 34.2781 136.919C31.2978 139.356 26.5133 143.271 25.2426 143.708C24.9278 143.816 24.6994 143.873 24.5216 143.85C24.3666 143.83 24.2116 143.736 24.0175 143.541L23.4401 142.964C23.2655 142.789 23.1839 142.638 23.166 142.481C23.1448 142.294 23.1954 142.06 23.2851 141.763C23.5755 140.801 27.8167 135.563 30.2457 132.563C30.5344 132.206 30.7987 131.88 31.027 131.599C31.2326 132.638 31.7383 133.63 32.5441 134.436C33.3663 135.258 34.3842 135.767 35.4477 135.964Z" fill="black"/>
<g clip-path="url(#clip1_499_6366)">
<path fill-rule="evenodd" clip-rule="evenodd" d="M230.106 68.3477C230.803 68.3477 231.351 68.549 231.75 68.9477C232.145 69.3452 232.345 69.8914 232.345 70.5943C232.345 71.3072 232.005 71.9409 231.32 72.4968C230.632 73.0526 229.834 73.3322 228.924 73.3322C228.24 73.3322 227.697 73.1409 227.28 72.7572C226.863 72.3692 226.655 71.8673 226.655 71.2429C226.655 70.4563 226.995 69.7784 227.671 69.2027C228.346 68.633 229.158 68.3477 230.106 68.3477ZM234 87.6523H225V86.1378H226.691V76.8877H225V75.6821H229.206C230.269 75.6821 231.314 75.5546 232.347 75.2941V86.1378H234V87.6523Z" fill="black"/>
</g>
<path d="M290.368 162.976H314.642C315.02 162.976 315.356 163.13 315.602 163.374C315.846 163.618 316 163.965 316 164.334V181.666C316 182.044 315.846 182.38 315.602 182.626C315.582 182.646 315.56 182.668 315.529 182.688C315.294 182.903 314.978 183.024 314.631 183.024H290.357C289.979 183.024 289.643 182.87 289.397 182.626C289.153 182.382 289 182.035 289 181.666V164.334C289 163.956 289.153 163.62 289.397 163.374C289.641 163.128 289.99 162.976 290.357 162.976H290.368ZM295.974 167.683C297.05 167.683 297.923 168.555 297.923 169.629C297.923 170.706 297.05 171.578 295.974 171.578C294.897 171.578 294.025 170.706 294.025 169.629C294.025 168.555 294.897 167.683 295.974 167.683ZM304.172 176.041L308.067 169.304L312.207 179.774H292.889V178.476L294.512 178.394L296.136 174.417L296.947 177.258H299.382L301.491 171.82L304.172 176.041ZM314.387 164.589H290.623V181.4H314.387V164.589Z" fill="black"/>
<path d="M110.197 48.6741L113.92 44.1605L115.622 46.3323L112.34 50.5057C111.084 52.1028 108.758 50.4198 110.197 48.6741ZM114.544 38.3954C114.899 37.2388 114.736 36.2505 113.404 34.7824L110.149 30.8667C109.687 30.3242 108.599 31.121 109.053 31.778L111.657 34.9847C112.149 35.5827 111.234 36.374 110.726 35.7581L108.033 32.4423C107.531 31.8676 106.495 32.6267 107.019 33.2838C107.779 34.1969 108.953 35.6883 109.712 36.6014C110.239 37.1367 109.438 37.9299 108.919 37.2621L106.246 33.9677C105.854 33.5416 105.213 33.8066 105.043 34.3043C104.86 34.8361 105.31 35.2246 105.616 35.6185L108.599 39.4714C109.524 40.5439 110.559 41.1795 111.762 40.8196C111.947 40.7641 112.172 40.6513 112.414 40.5027L120.428 50.8477C120.859 51.4045 121.692 51.4636 122.233 51.0142L122.356 50.9121C122.965 50.4055 123.063 49.4798 122.542 48.8818L114.056 39.1313C114.303 38.8555 114.484 38.5941 114.544 38.3954ZM116.813 40.6513L118.132 39.0507C116.435 34.8432 122.725 29.2357 125.774 31.8139C129.478 34.9489 123.973 42.5044 120.104 40.637L118.541 42.6226L116.813 40.6513Z" fill="black"/>
</g>
<path fill-rule="evenodd" clip-rule="evenodd" d="M232.385 150L237 145.245L234.03 145.245V140.905V140.823V136.825H230.741V140.823V145.245L227.77 145.245L232.385 150ZM227.615 130L232.23 134.755L229.26 134.755V139.095V139.177V143.175H225.971V139.177V134.755L223 134.755L227.615 130Z" fill="black"/>
<defs>
<clipPath id="clip0_499_6366">
<rect width="332.847" height="250" fill="white"/>
</clipPath>
<clipPath id="clip1_499_6366">
<rect width="9" height="19.3046" fill="white" transform="translate(225 68.3477)"/>
</clipPath>
</defs>
</svg>
