<svg width="254" height="401" viewBox="0 0 254 401" fill="none" xmlns="http://www.w3.org/2000/svg">
<path d="M253.5 302.26H231.541V394.824H214.891V302.26H135.5V275.239L219.717 6.17224H231.541V267.19H253.5V302.26ZM155.046 267.19H214.891V71.7141L155.046 267.19Z" fill="#060604"/>
<path d="M0.5 201.075C0.5 72.3391 21.241 0.5 58.382 0.5C95.2817 0.5 116.264 72.3391 116.264 201.075C116.264 329.81 95.7641 400.5 58.382 400.5C20.7587 400.5 0.5 329.81 0.5 201.075ZM17.8646 201.075C17.8646 307.971 31.6116 364.868 58.382 364.868C84.67 364.868 98.8994 308.546 98.8994 201.075C98.8994 93.0287 84.67 36.1322 58.382 36.1322C32.0939 36.1322 17.8646 92.454 17.8646 201.075Z" fill="#060604"/>
</svg>
