<svg width="253" height="400" viewBox="0 0 253 400" fill="none" xmlns="http://www.w3.org/2000/svg">
<path d="M195.825 399.999C165.643 399.999 142.577 352.298 141.595 286.206H158.281C159.754 333.907 174.968 364.367 195.825 364.367C221.1 364.367 235.578 327.585 235.578 272.987C235.578 224.137 219.873 185.056 196.316 185.056C180.366 185.056 168.097 201.148 159.999 231.033L146.748 221.838L161.226 5.74603H243.675V40.8035H173.495L164.416 181.033C174.477 159.769 185.765 150.574 198.525 150.574C232.388 150.574 253 205.746 253 272.413C253 345.401 231.406 399.999 195.825 399.999Z" fill="black"/>
<path d="M0 200.575C0 71.8391 21.1031 0 58.8924 0C96.4363 0 117.785 71.8391 117.785 200.575C117.785 329.31 96.9271 400 58.8924 400C20.6123 400 0 329.31 0 200.575ZM17.6677 200.575C17.6677 307.471 31.6547 364.368 58.8924 364.368C85.6394 364.368 100.117 308.046 100.117 200.575C100.117 92.5287 85.6394 35.6322 58.8924 35.6322C32.1455 35.6322 17.6677 91.954 17.6677 200.575Z" fill="black"/>
</svg>
