<svg width="253" height="400" viewBox="0 0 253 400" fill="none" xmlns="http://www.w3.org/2000/svg">
<path d="M195.535 399.424C162.663 399.424 138.313 343.677 138.313 272.413C138.313 221.838 147.079 191.378 159.984 153.447L209.657 5.74609H228.894L179.464 153.447C186.282 147.7 192.856 144.827 198.944 144.827C229.624 144.827 253 194.827 253 271.263C253 343.677 228.65 399.424 195.535 399.424ZM195.778 366.091C218.423 366.091 235.468 326.436 235.468 272.413C235.468 214.367 218.423 175.861 195.778 175.861C172.889 175.861 155.845 209.194 155.845 271.263C155.845 326.436 172.889 366.091 195.778 366.091Z" fill="black"/>
<path d="M0 200.575C0 71.8391 20.9407 0 58.4391 0C95.694 0 116.878 71.8391 116.878 200.575C116.878 329.31 96.1809 400 58.4391 400C20.4537 400 0 329.31 0 200.575ZM17.5317 200.575C17.5317 307.471 31.411 364.368 58.4391 364.368C84.9801 364.368 99.3464 308.046 99.3464 200.575C99.3464 92.5287 84.9801 35.6322 58.4391 35.6322C31.898 35.6322 17.5317 91.954 17.5317 200.575Z" fill="black"/>
</svg>
