<svg width="253" height="400" viewBox="0 0 253 400" fill="none" xmlns="http://www.w3.org/2000/svg">
<path d="M253 28.7345L183.731 394.252H164.489L232.989 41.3782H139.86V5.74603H253V28.7345Z" fill="black"/>
<path d="M0 200.575C0 71.8391 22.0636 0 61.5729 0C100.826 0 123.146 71.8391 123.146 200.575C123.146 329.31 101.339 400 61.5729 400C21.5505 400 0 329.31 0 200.575ZM18.4719 200.575C18.4719 307.471 33.0955 364.368 61.5729 364.368C89.5373 364.368 104.674 308.046 104.674 200.575C104.674 92.5287 89.5373 35.6322 61.5729 35.6322C33.6086 35.6322 18.4719 91.954 18.4719 200.575Z" fill="black"/>
</svg>
