<svg width="40" height="40" viewBox="0 0 40 40" fill="none" xmlns="http://www.w3.org/2000/svg">
<path d="M20 22.316L2.83938 39.4766C2.53407 39.7819 2.15898 39.9455 1.7141 39.9673C1.26922 39.9891 0.872314 39.8255 0.523388 39.4766C0.174462 39.1277 0 38.7417 0 38.3186C0 37.8955 0.174462 37.5095 0.523388 37.1606L17.684 20L0.523388 2.83938C0.218078 2.53407 0.0545189 2.15898 0.032711 1.7141C0.0109031 1.26922 0.174462 0.872314 0.523388 0.523388C0.872314 0.174462 1.25831 0 1.68139 0C2.10446 0 2.49046 0.174462 2.83938 0.523388L20 17.684L37.1606 0.523388C37.4659 0.218078 37.8421 0.0545189 38.2892 0.032711C38.7319 0.0109031 39.1277 0.174462 39.4766 0.523388C39.8255 0.872314 40 1.25831 40 1.68139C40 2.10446 39.8255 2.49046 39.4766 2.83938L22.316 20L39.4766 37.1606C39.7819 37.4659 39.9455 37.8421 39.9673 38.2892C39.9891 38.7319 39.8255 39.1277 39.4766 39.4766C39.1277 39.8255 38.7417 40 38.3186 40C37.8955 40 37.5095 39.8255 37.1606 39.4766L20 22.316Z" fill="black"/>
</svg>
