<svg width="134" height="193" viewBox="0 0 134 193" fill="none" xmlns="http://www.w3.org/2000/svg">
<path d="M3.01 37.14C3.01 25.19 3.01 19.22 5.34 14.65C7.39 10.64 10.65 7.37 14.66 5.33C19.23 3 25.2 3 37.15 3H96.88C108.83 3 114.8 3 119.37 5.33C123.38 7.38 126.65 10.64 128.69 14.65C131.02 19.22 131.02 25.19 131.02 37.14V179.06C131.02 184.24 131.02 186.84 129.94 188.25C129 189.5 127.55 190.27 125.99 190.36C124.21 190.47 122.05 189.03 117.74 186.16L67.01 152.34L16.28 186.15C11.97 189.03 9.82 190.47 8.02 190.36C6.46 190.27 5.02 189.49 4.08 188.25C3 186.83 3 184.24 3 179.06V37.14H3.01Z" fill="#FFFFFA" stroke="#060604" stroke-width="5" stroke-linecap="round" stroke-linejoin="round"/>
</svg>
