<svg width="100" height="30" viewBox="0 0 100 30" fill="none" xmlns="http://www.w3.org/2000/svg">
<path d="M5.24771 6.81174L4.65138 5.16003H1.80734L1.20183 6.81174H0.183486L2.70642 0.149199H3.81651L6.3211 6.81174H5.24771ZM3.23853 1.26272L2.11009 4.33417H4.34862L3.23853 1.26272Z" fill="#CFFF5C"/>
<path d="M12.0178 6.95093C10.183 6.95093 8.76097 5.43841 8.76097 3.47119C8.76097 1.51326 10.183 0.0100098 12.0178 0.0100098C13.6692 0.0100098 14.9903 1.12353 15.238 2.76596H14.1646C13.9811 1.68956 13.1188 0.928662 12.027 0.928662C10.7243 0.928662 9.80684 1.99578 9.80684 3.47119C9.80684 4.96516 10.7243 6.03228 12.027 6.03228C13.1188 6.03228 13.9811 5.2621 14.1646 4.1857H15.238C14.9903 5.83742 13.6692 6.95093 12.0178 6.95093Z" fill="#CFFF5C"/>
<path d="M18.2501 6.90454C16.874 6.90454 15.8648 5.80958 15.8648 4.35273C15.8648 2.89587 16.874 1.80092 18.2501 1.80092C19.6263 1.80092 20.6355 2.89587 20.6355 4.35273C20.6355 5.80958 19.6263 6.90454 18.2501 6.90454ZM18.2501 6.07868C19.0483 6.07868 19.6813 5.42913 19.6813 4.35273C19.6813 3.27633 19.0483 2.63605 18.2501 2.63605C17.452 2.63605 16.8281 3.27633 16.8281 4.35273C16.8281 5.42913 17.452 6.07868 18.2501 6.07868Z" fill="#CFFF5C"/>
<path d="M26.2223 4.35273C26.2223 5.83742 25.3782 6.90454 24.0755 6.90454C23.4149 6.90454 22.8553 6.57048 22.5067 5.9766V8.60265H21.5801V1.89371H22.4424V2.7938C22.7911 2.16281 23.3874 1.80092 24.0755 1.80092C25.3691 1.80092 26.2223 2.86804 26.2223 4.35273ZM25.259 4.35273C25.259 3.24849 24.681 2.62677 23.8828 2.62677C23.1122 2.62677 22.5067 3.24849 22.5067 4.35273C22.5067 5.43841 23.103 6.0694 23.8828 6.0694C24.681 6.0694 25.259 5.45696 25.259 4.35273Z" fill="#CFFF5C"/>
<path d="M29.1617 6.90454C27.758 6.90454 26.8131 5.87453 26.8131 4.32489C26.8131 2.86804 27.7947 1.80092 29.1342 1.80092C30.5837 1.80092 31.547 2.98867 31.3819 4.58471H27.758C27.8314 5.58687 28.3268 6.17147 29.1433 6.17147C29.8314 6.17147 30.3085 5.79102 30.4644 5.15075H31.3819C31.1433 6.2457 30.3085 6.90454 29.1617 6.90454ZM29.1158 2.50614C28.3727 2.50614 27.8681 3.04434 27.7672 3.963H30.4002C30.3544 3.05362 29.8681 2.50614 29.1158 2.50614Z" fill="#CFFF5C"/>
<path d="M33.2936 4.03723V6.81174H32.367V1.89371H33.2294V2.71029C33.5597 2.16281 34.1102 1.80092 34.7799 1.80092C35.7799 1.80092 36.4404 2.45047 36.4404 3.62894V6.81174H35.5138V3.94444C35.5138 3.10002 35.1469 2.62677 34.4588 2.62677C33.8258 2.62677 33.2936 3.16497 33.2936 4.03723Z" fill="#CFFF5C"/>
<path d="M38.5975 4.03723V6.81174H37.6709V0.149199H38.5975V2.68245C38.9186 2.15353 39.4141 1.80092 40.0838 1.80092C41.0838 1.80092 41.7443 2.45047 41.7443 3.62894V6.81174H40.8177V3.94444C40.8177 3.10002 40.4508 2.62677 39.7627 2.62677C39.1297 2.62677 38.5975 3.16497 38.5975 4.03723Z" fill="#CFFF5C"/>
<path d="M45.9198 6.81174V6.05084C45.617 6.59832 45.0758 6.90454 44.3602 6.90454C43.351 6.90454 42.6904 6.31994 42.6904 5.41985C42.6904 4.4548 43.4519 3.95372 44.9014 3.95372C45.1858 3.95372 45.4152 3.96299 45.8097 4.00939V3.6475C45.8097 2.94227 45.4336 2.54326 44.7914 2.54326C44.1125 2.54326 43.6996 2.95155 43.6721 3.63822H42.8281C42.8739 2.53398 43.6537 1.80092 44.7914 1.80092C45.9932 1.80092 46.6904 2.48759 46.6904 3.65678V6.81174H45.9198ZM43.5712 5.39201C43.5712 5.90237 43.9473 6.23643 44.5436 6.23643C45.3235 6.23643 45.8097 5.74462 45.8097 4.993V4.59399C45.4519 4.54759 45.195 4.53831 44.9565 4.53831C44.0299 4.53831 43.5712 4.81669 43.5712 5.39201Z" fill="#CFFF5C"/>
<path d="M49.8743 8.70472C48.5991 8.70472 47.7734 8.01805 47.7183 6.90454H48.6174C48.6724 7.5912 49.1128 7.96238 49.8651 7.96238C50.7 7.96238 51.1403 7.50769 51.1403 6.66327V5.77246C50.8651 6.36634 50.3147 6.70967 49.6541 6.70967C48.4431 6.70967 47.5807 5.69823 47.5807 4.25065C47.5807 2.78452 48.4064 1.80092 49.6266 1.80092C50.3238 1.80092 50.8743 2.14425 51.2046 2.76596V1.89371H52.0669V6.64472C52.0669 7.93454 51.2504 8.70472 49.8743 8.70472ZM48.5165 4.25065C48.5165 5.27138 49.0119 5.89309 49.8192 5.89309C50.6082 5.89309 51.1403 5.25282 51.1403 4.27849C51.1403 3.25777 50.6174 2.60822 49.8192 2.60822C49.0211 2.60822 48.5165 3.23921 48.5165 4.25065Z" fill="#CFFF5C"/>
<path d="M55.3497 6.90454C53.946 6.90454 53.0011 5.87453 53.0011 4.32489C53.0011 2.86804 53.9827 1.80092 55.3222 1.80092C56.7717 1.80092 57.735 2.98867 57.5699 4.58471H53.946C54.0194 5.58687 54.5148 6.17147 55.3313 6.17147C56.0194 6.17147 56.4965 5.79102 56.6524 5.15075H57.5699C57.3313 6.2457 56.4965 6.90454 55.3497 6.90454ZM55.3038 2.50614C54.5607 2.50614 54.0561 3.04434 53.9552 3.963H56.5882C56.5424 3.05362 56.0561 2.50614 55.3038 2.50614Z" fill="#CFFF5C"/>
<path d="M59.4817 4.03723V6.81174H58.555V1.89371H59.4174V2.71029C59.7477 2.16281 60.2982 1.80092 60.9679 1.80092C61.9679 1.80092 62.6284 2.45047 62.6284 3.62894V6.81174H61.7018V3.94444C61.7018 3.10002 61.3349 2.62677 60.6468 2.62677C60.0138 2.62677 59.4817 3.16497 59.4817 4.03723Z" fill="#CFFF5C"/>
<path d="M71.6316 0.149199L68.1362 6.81174H67.0628L65.916 0.149199H66.8885L67.7784 5.65183L70.5765 0.149199H71.6316Z" fill="#CFFF5C"/>
<path d="M73.4141 0.641003C73.4141 1.03073 73.0655 1.36479 72.6527 1.36479C72.3224 1.36479 72.1022 1.15136 72.1022 0.863706C72.1022 0.473975 72.4508 0.13992 72.8637 0.13992C73.194 0.13992 73.4141 0.353344 73.4141 0.641003ZM72.1481 6.81174H71.2582L72.1206 1.89371H73.0105L72.1481 6.81174Z" fill="#CFFF5C"/>
<path d="M77.3527 5.35489C77.3527 6.27354 76.6463 6.90454 75.3619 6.90454C74.2243 6.90454 73.4261 6.27354 73.3986 5.20642H74.2518C74.2793 5.83742 74.7289 6.21787 75.4261 6.21787C76.0316 6.21787 76.472 5.96733 76.472 5.45696C76.472 5.04867 76.2334 4.90021 75.7747 4.78885L75.05 4.62183C74.3711 4.46408 73.894 4.10218 73.894 3.31344C73.894 2.37623 74.7105 1.80092 75.8298 1.80092C76.9399 1.80092 77.6188 2.43191 77.6371 3.44335H76.7839C76.7472 2.8402 76.4078 2.47831 75.7931 2.47831C75.1784 2.47831 74.7564 2.76596 74.7564 3.23921C74.7564 3.66606 75.0408 3.83308 75.4536 3.93516L76.1142 4.09291C76.8022 4.25065 77.3527 4.56615 77.3527 5.35489Z" fill="#CFFF5C"/>
<path d="M81.3685 4.7239L81.8731 1.89371H82.763L81.9098 6.81174H81.0841L81.2217 5.9766C80.8272 6.57976 80.3134 6.90454 79.7263 6.90454C78.7446 6.90454 78.2033 6.12507 78.4052 4.98372L78.9373 1.89371H79.8272L79.3318 4.76102C79.185 5.59615 79.4786 6.08796 80.1024 6.08796C80.7446 6.08796 81.2217 5.52192 81.3685 4.7239Z" fill="#CFFF5C"/>
<path d="M86.0087 6.81174L86.1463 6.04156C85.7793 6.58904 85.2289 6.90454 84.5591 6.90454C83.6876 6.90454 83.1279 6.40345 83.1279 5.61471C83.1279 4.58471 84.0362 3.94444 85.4857 3.94444C85.7701 3.94444 86.0729 3.963 86.394 4.00011L86.4582 3.6475C86.5775 2.96083 86.238 2.5247 85.605 2.5247C84.9536 2.5247 84.55 2.89587 84.4032 3.63822H83.5867C83.7334 2.48759 84.5133 1.80092 85.6876 1.80092C86.8344 1.80092 87.4949 2.56182 87.3023 3.65678L86.7518 6.81174H86.0087ZM83.9995 5.52192C83.9995 5.97661 84.3114 6.24571 84.8344 6.24571C85.4949 6.24571 86.0912 5.7539 86.2289 4.98372L86.2931 4.58471C86.027 4.54759 85.7059 4.52903 85.4399 4.52903C84.5316 4.52903 83.9995 4.90021 83.9995 5.52192Z" fill="#CFFF5C"/>
<path d="M88.884 6.81174H87.9941L89.1593 0.149199H90.0492L88.884 6.81174Z" fill="#CFFF5C"/>
<path d="M2.70642 14.0651L4.17431 15.7353C4.2844 15.4106 4.34862 15.0116 4.36697 14.5847H5.22018C5.20183 15.2064 5.01835 15.856 4.72477 16.3571L5.85321 17.6376H4.69725L4.17431 17.0437C3.6789 17.4984 3.10092 17.7304 2.49541 17.7304C1.17431 17.7304 0.330275 16.9509 0.330275 15.7353C0.330275 14.9837 0.807339 14.3806 1.53211 14.028C1.24771 13.6382 1.11009 13.2949 1.11009 12.8495C1.11009 11.9401 1.87156 11.272 2.88991 11.272C3.91743 11.272 4.63303 11.9215 4.65138 12.8773H3.77982C3.73394 12.3298 3.33945 12.0236 2.88991 12.0236C2.41284 12.0236 2.05505 12.3762 2.05505 12.8588C2.05505 13.2763 2.27523 13.564 2.70642 14.0651ZM1.22018 15.6797C1.22018 16.3385 1.65138 16.9602 2.56881 16.9602C2.99083 16.9602 3.3945 16.7932 3.69725 16.5055L2.00917 14.5847C1.54128 14.7796 1.22018 15.1693 1.22018 15.6797Z" fill="#CFFF5C"/>
<path d="M10.2883 17.6376H8.15066L9.3158 10.9751H11.3158C12.903 10.9751 13.9947 12.1257 13.9947 13.7774C13.9947 16.0137 12.4351 17.6376 10.2883 17.6376ZM10.1415 11.8473L9.26993 16.7653H10.3984C11.9121 16.7653 12.9855 15.5498 12.9855 13.8145C12.9855 12.6082 12.2883 11.8473 11.1598 11.8473H10.1415Z" fill="#CFFF5C"/>
<path d="M16.5137 11.4669C16.5137 11.8566 16.1651 12.1906 15.7522 12.1906C15.4219 12.1906 15.2018 11.9772 15.2018 11.6896C15.2018 11.2998 15.5504 10.9658 15.9632 10.9658C16.2935 10.9658 16.5137 11.1792 16.5137 11.4669ZM15.2476 17.6376H14.3577L15.2201 12.7196H16.11L15.2476 17.6376Z" fill="#CFFF5C"/>
<path d="M18.2963 19.5213C17.1403 19.5213 16.4064 18.8625 16.3789 17.7304H17.2413C17.2596 18.4078 17.6633 18.7975 18.3513 18.7975C19.0578 18.7975 19.5624 18.3799 19.7183 17.4891L19.8743 16.5798C19.5165 17.1736 18.911 17.5262 18.2596 17.5262C17.2504 17.5262 16.5991 16.7746 16.5991 15.6147C16.5991 13.9723 17.7091 12.6268 19.0669 12.6268C19.7367 12.6268 20.2321 12.9794 20.4614 13.5918L20.5991 12.7196H21.4339L20.6082 17.4799C20.3697 18.8254 19.5807 19.5213 18.2963 19.5213ZM17.5073 15.5312C17.5073 16.2921 17.8926 16.7468 18.5348 16.7468C19.4981 16.7468 20.177 15.6797 20.177 14.6125C20.177 13.8795 19.7734 13.4155 19.1128 13.4155C18.2229 13.4155 17.5073 14.3527 17.5073 15.5312Z" fill="#CFFF5C"/>
<path d="M24.0216 11.4669C24.0216 11.8566 23.6729 12.1906 23.2601 12.1906C22.9298 12.1906 22.7096 11.9772 22.7096 11.6896C22.7096 11.2998 23.0583 10.9658 23.4711 10.9658C23.8014 10.9658 24.0216 11.1792 24.0216 11.4669ZM22.7555 17.6376H21.8656L22.728 12.7196H23.6179L22.7555 17.6376Z" fill="#CFFF5C"/>
<path d="M26.7767 16.7468L26.639 17.5819C26.4005 17.684 26.1253 17.7304 25.8592 17.7304C24.9326 17.7304 24.4647 17.0623 24.6482 16.023L25.0886 13.499H24.0702L24.2079 12.7196H25.2262L25.4739 11.2627H26.373L26.1253 12.7196H27.529L27.3913 13.499H25.9785L25.5473 16.023C25.4464 16.589 25.6574 16.886 26.1436 16.886C26.3638 16.886 26.6023 16.8303 26.7767 16.7468Z" fill="#CFFF5C"/>
<path d="M30.3804 17.6376L30.5181 16.8674C30.1511 17.4149 29.6006 17.7304 28.9309 17.7304C28.0593 17.7304 27.4997 17.2293 27.4997 16.4406C27.4997 15.4106 28.408 14.7703 29.8575 14.7703C30.1419 14.7703 30.4447 14.7889 30.7658 14.826L30.83 14.4734C30.9493 13.7867 30.6098 13.3506 29.9768 13.3506C29.3254 13.3506 28.9217 13.7217 28.7749 14.4641H27.9584C28.1052 13.3134 28.885 12.6268 30.0593 12.6268C31.2061 12.6268 31.8667 13.3877 31.674 14.4826L31.1236 17.6376H30.3804ZM28.3713 16.3478C28.3713 16.8025 28.6832 17.0716 29.2061 17.0716C29.8667 17.0716 30.463 16.5798 30.6006 15.8096L30.6649 15.4106C30.3988 15.3735 30.0777 15.3549 29.8116 15.3549C28.9034 15.3549 28.3713 15.7261 28.3713 16.3478Z" fill="#CFFF5C"/>
<path d="M33.2558 17.6376H32.3659L33.531 10.9751H34.4209L33.2558 17.6376Z" fill="#CFFF5C"/>
<path d="M39.0474 17.6376H36.9649V10.9751H39.0474C41.1484 10.9751 42.3594 12.3298 42.3594 14.2785C42.3594 16.1993 41.1025 17.6376 39.0474 17.6376ZM37.9741 11.8566V16.7561H39.0016C40.5153 16.7561 41.3318 15.8096 41.3318 14.2785C41.3318 12.7752 40.5245 11.8566 39.0016 11.8566H37.9741Z" fill="#CFFF5C"/>
<path d="M45.3422 17.7304C43.9385 17.7304 42.9936 16.7004 42.9936 15.1507C42.9936 13.6939 43.9752 12.6268 45.3147 12.6268C46.7642 12.6268 47.7275 13.8145 47.5624 15.4106H43.9385C44.0119 16.4127 44.5073 16.9973 45.3238 16.9973C46.0119 16.9973 46.489 16.6169 46.6449 15.9766H47.5624C47.3238 17.0716 46.489 17.7304 45.3422 17.7304ZM45.2963 13.332C44.5532 13.332 44.0486 13.8702 43.9477 14.7889H46.5807C46.5348 13.8795 46.0486 13.332 45.2963 13.332Z" fill="#CFFF5C"/>
<path d="M52.4007 16.1715C52.4007 17.1365 51.6576 17.7304 50.364 17.7304C49.0796 17.7304 48.3182 17.0901 48.2264 16.0323H49.1163C49.153 16.6447 49.6393 17.0252 50.3824 17.0252C51.0338 17.0252 51.465 16.7932 51.465 16.3292C51.465 15.9209 51.2172 15.7446 50.6117 15.624L49.8227 15.4755C48.9237 15.2992 48.4191 14.8353 48.4191 14.0929C48.4191 13.2299 49.1622 12.6268 50.2906 12.6268C51.4558 12.6268 52.2448 13.2578 52.3273 14.2692H51.4374C51.3824 13.6753 50.9512 13.332 50.2998 13.332C49.7127 13.332 49.3182 13.5825 49.3182 14.0094C49.3182 14.4084 49.5659 14.594 50.153 14.7053L50.9787 14.8631C51.942 15.0394 52.4007 15.4662 52.4007 16.1715Z" fill="#CFFF5C"/>
<path d="M54.5409 11.5782C54.5409 11.9308 54.2656 12.1999 53.8711 12.1999C53.4766 12.1999 53.1922 11.9308 53.1922 11.5782C53.1922 11.2163 53.4766 10.9565 53.8711 10.9565C54.2656 10.9565 54.5409 11.2163 54.5409 11.5782ZM54.339 17.6376H53.4124V12.7196H54.339V17.6376Z" fill="#CFFF5C"/>
<path d="M57.5703 19.5306C56.2951 19.5306 55.4694 18.8439 55.4143 17.7304H56.3134C56.3685 18.4171 56.8088 18.7882 57.5611 18.7882C58.396 18.7882 58.8364 18.3336 58.8364 17.4891V16.5983C58.5611 17.1922 58.0107 17.5355 57.3501 17.5355C56.1391 17.5355 55.2767 16.5241 55.2767 15.0765C55.2767 13.6104 56.1024 12.6268 57.3226 12.6268C58.0199 12.6268 58.5703 12.9701 58.9006 13.5918V12.7196H59.763V17.4706C59.763 18.7604 58.9465 19.5306 57.5703 19.5306ZM56.2125 15.0765C56.2125 16.0972 56.7079 16.719 57.5153 16.719C58.3043 16.719 58.8364 16.0787 58.8364 15.1044C58.8364 14.0836 58.3134 13.4341 57.5153 13.4341C56.7171 13.4341 56.2125 14.0651 56.2125 15.0765Z" fill="#CFFF5C"/>
<path d="M61.9723 14.8631V17.6376H61.0457V12.7196H61.9081V13.5361C62.2384 12.9887 62.7888 12.6268 63.4586 12.6268C64.4586 12.6268 65.1191 13.2763 65.1191 14.4548V17.6376H64.1925V14.7703C64.1925 13.9259 63.8255 13.4526 63.1375 13.4526C62.5044 13.4526 61.9723 13.9908 61.9723 14.8631Z" fill="#CFFF5C"/>
<path d="M69.3495 17.6376H68.3403V10.9751H72.3403V11.8659H69.3495V14.0372H71.8999V14.928H69.3495V17.6376Z" fill="#CFFF5C"/>
<path d="M75.1228 17.7304C73.7192 17.7304 72.7742 16.7004 72.7742 15.1507C72.7742 13.6939 73.7559 12.6268 75.0953 12.6268C76.5449 12.6268 77.5082 13.8145 77.343 15.4106H73.7192C73.7926 16.4127 74.288 16.9973 75.1045 16.9973C75.7926 16.9973 76.2696 16.6169 76.4256 15.9766H77.343C77.1045 17.0716 76.2696 17.7304 75.1228 17.7304ZM75.077 13.332C74.3339 13.332 73.8293 13.8702 73.7284 14.7889H76.3614C76.3155 13.8795 75.8293 13.332 75.077 13.332Z" fill="#CFFF5C"/>
<path d="M82.1814 16.1715C82.1814 17.1365 81.4383 17.7304 80.1447 17.7304C78.8603 17.7304 78.0988 17.0901 78.0071 16.0323H78.897C78.9337 16.6447 79.4199 17.0252 80.1631 17.0252C80.8144 17.0252 81.2456 16.7932 81.2456 16.3292C81.2456 15.9209 80.9979 15.7446 80.3924 15.624L79.6034 15.4755C78.7043 15.2992 78.1998 14.8353 78.1998 14.0929C78.1998 13.2299 78.9429 12.6268 80.0713 12.6268C81.2364 12.6268 82.0254 13.2578 82.108 14.2692H81.2181C81.1631 13.6753 80.7319 13.332 80.0805 13.332C79.4933 13.332 79.0988 13.5825 79.0988 14.0094C79.0988 14.4084 79.3465 14.594 79.9337 14.7053L80.7594 14.8631C81.7227 15.0394 82.1814 15.4662 82.1814 16.1715Z" fill="#CFFF5C"/>
<path d="M85.8735 16.7282V17.5541C85.5891 17.684 85.3414 17.7304 85.0478 17.7304C84.1487 17.7304 83.5249 17.2386 83.5249 16.1529V13.5176H82.4515V12.7196H83.5249V11.2627H84.4515V12.7196H85.9194V13.5176H84.4515V15.9395C84.4515 16.6169 84.7726 16.8581 85.268 16.8581C85.4882 16.8581 85.6808 16.821 85.8735 16.7282Z" fill="#CFFF5C"/>
<path d="M87.9321 11.5782C87.9321 11.9308 87.6569 12.1999 87.2624 12.1999C86.8679 12.1999 86.5835 11.9308 86.5835 11.5782C86.5835 11.2163 86.8679 10.9565 87.2624 10.9565C87.6569 10.9565 87.9321 11.2163 87.9321 11.5782ZM87.7303 17.6376H86.8037V12.7196H87.7303V17.6376Z" fill="#CFFF5C"/>
<path d="M93.0533 12.7196L91.2276 17.6376H90.2185L88.3928 12.7196H89.3928L90.7414 16.5612L92.1084 12.7196H93.0533Z" fill="#CFFF5C"/>
<path d="M96.5487 17.6376V16.8767C96.246 17.4242 95.7047 17.7304 94.9891 17.7304C93.9799 17.7304 93.3194 17.1458 93.3194 16.2457C93.3194 15.2807 94.0808 14.7796 95.5304 14.7796C95.8148 14.7796 96.0441 14.7889 96.4386 14.8353V14.4734C96.4386 13.7681 96.0625 13.3691 95.4203 13.3691C94.7414 13.3691 94.3286 13.7774 94.301 14.4641H93.457C93.5029 13.3598 94.2827 12.6268 95.4203 12.6268C96.6221 12.6268 97.3194 13.3134 97.3194 14.4826V17.6376H96.5487ZM94.2001 16.2179C94.2001 16.7282 94.5763 17.0623 95.1726 17.0623C95.9524 17.0623 96.4386 16.5705 96.4386 15.8189V15.4198C96.0808 15.3735 95.824 15.3642 95.5854 15.3642C94.6588 15.3642 94.2001 15.6426 94.2001 16.2179Z" fill="#CFFF5C"/>
<path d="M99.4941 17.6376H98.5583V10.9751H99.4941V17.6376Z" fill="#CFFF5C"/>
<path d="M0 25.8463C0 23.1585 0.825004 21.6586 2.30816 21.6586C3.79131 21.6586 4.62559 23.1585 4.62559 25.8463C4.62559 28.5341 3.80985 30.01 2.30816 30.01C0.806465 30.01 0 28.5341 0 25.8463ZM0.96405 25.8463C0.96405 27.8502 1.42754 28.9181 2.30816 28.9181C3.18878 28.9181 3.66154 27.8622 3.66154 25.8463C3.66154 23.8185 3.18878 22.7506 2.30816 22.7506C1.44607 22.7506 0.96405 23.8185 0.96405 25.8463Z" fill="#CFFF5C"/>
<path d="M10.0917 28.1022H9.23893V29.89H8.30269V28.1022H5.29003V27.2502L8.51589 21.7786H9.23893V27.0462H10.0917V28.1022ZM6.33751 27.0462H8.30269V23.6145L6.33751 27.0462Z" fill="#CFFF5C"/>
<path d="M55.9633 25.537C55.9633 22.8492 56.781 21.3493 58.2509 21.3493C59.7209 21.3493 60.5477 22.8492 60.5477 25.537C60.5477 28.2248 59.7392 29.7007 58.2509 29.7007C56.7626 29.7007 55.9633 28.2248 55.9633 25.537ZM56.9188 25.537C56.9188 27.5409 57.3781 28.6088 58.2509 28.6088C59.1237 28.6088 59.5922 27.5529 59.5922 25.537C59.5922 23.5092 59.1237 22.4412 58.2509 22.4412C57.3965 22.4412 56.9188 23.5092 56.9188 25.537Z" fill="#CFFF5C"/>
<path d="M65.2691 22.1773L62.8713 29.5807H61.8699L64.231 22.5612H61.0798V21.4693H65.2691V22.1773Z" fill="#CFFF5C"/>
<path d="M67.86 25.537C67.86 22.8492 68.6777 21.3493 70.1476 21.3493C71.6176 21.3493 72.4444 22.8492 72.4444 25.537C72.4444 28.2248 71.6359 29.7007 70.1476 29.7007C68.6593 29.7007 67.86 28.2248 67.86 25.537ZM68.8155 25.537C68.8155 27.5409 69.2748 28.6088 70.1476 28.6088C71.0204 28.6088 71.489 27.5529 71.489 25.537C71.489 23.5092 71.0204 22.4412 70.1476 22.4412C69.2932 22.4412 68.8155 23.5092 68.8155 25.537Z" fill="#CFFF5C"/>
<path d="M75.4641 21.3613C76.787 21.3613 77.7333 22.5612 77.7333 24.0371C77.7333 25.0331 77.4669 25.669 76.9156 26.5569L75.0506 29.5807H73.9849L75.8132 26.6049C75.6294 26.6889 75.4457 26.7249 75.2711 26.7249C74.0676 26.7249 73.1856 25.657 73.1856 24.0971C73.1856 22.5612 74.1411 21.3613 75.4641 21.3613ZM75.4549 22.3812C74.7199 22.3812 74.1503 23.0532 74.1503 24.0611C74.1503 25.129 74.7199 25.777 75.4549 25.777C76.1807 25.777 76.7687 25.201 76.7687 24.0731C76.7687 23.0532 76.1807 22.3812 75.4549 22.3812Z" fill="#CFFF5C"/>
<path d="M84.4361 28.5008V29.5807H80.4213V28.8848L82.3598 26.149C83.0948 25.105 83.3796 24.5411 83.3796 23.8091C83.3796 23.0052 82.9478 22.4412 82.3138 22.4412C81.6248 22.4412 81.1654 23.0292 81.1654 23.9291H80.2559C80.2559 22.4292 81.1195 21.3493 82.3506 21.3493C83.5082 21.3493 84.3534 22.3333 84.3534 23.6652C84.3534 24.5891 84.087 25.237 83.0672 26.6529L81.8177 28.5008H84.4361Z" fill="#CFFF5C"/>
<path d="M85.2924 25.537C85.2924 22.8492 86.11 21.3493 87.58 21.3493C89.0499 21.3493 89.8768 22.8492 89.8768 25.537C89.8768 28.2248 89.0683 29.7007 87.58 29.7007C86.0917 29.7007 85.2924 28.2248 85.2924 25.537ZM86.2478 25.537C86.2478 27.5409 86.7072 28.6088 87.58 28.6088C88.4528 28.6088 88.9213 27.5529 88.9213 25.537C88.9213 23.5092 88.4528 22.4412 87.58 22.4412C86.7256 22.4412 86.2478 23.5092 86.2478 25.537Z" fill="#CFFF5C"/>
<path d="M94.8165 28.5008V29.5807H90.8017V28.8848L92.7402 26.149C93.4752 25.105 93.76 24.5411 93.76 23.8091C93.76 23.0052 93.3282 22.4412 92.6943 22.4412C92.0053 22.4412 91.5459 23.0292 91.5459 23.9291H90.6364C90.6364 22.4292 91.5 21.3493 92.7311 21.3493C93.8886 21.3493 94.7339 22.3333 94.7339 23.6652C94.7339 24.5891 94.4674 25.237 93.4477 26.6529L92.1982 28.5008H94.8165Z" fill="#CFFF5C"/>
<path d="M97.7583 29.7007C96.5456 29.7007 95.6177 28.6688 95.5718 27.2289H96.4997C96.564 28.0928 97.0693 28.6088 97.7583 28.6088C98.6127 28.6088 99.0353 27.9128 99.0353 26.9889C99.0353 26.149 98.576 25.417 97.7491 25.417C97.1979 25.417 96.7845 25.717 96.5272 26.305L95.7739 25.993L96.3251 21.4693H99.6417V22.5492H96.9958L96.7202 24.8891C97.0693 24.5291 97.4643 24.3611 97.8869 24.3611C99.2558 24.3611 100 25.609 100 26.9889C100 28.4408 99.2007 29.7007 97.7583 29.7007Z" fill="#CFFF5C"/>
<path d="M12.5382 25.3704H53.5168V26.1436H12.5382V25.3704Z" fill="#CFFF5C"/>
<path d="M79.2049 29.0821C79.2049 29.4237 78.9311 29.7007 78.5933 29.7007C78.2555 29.7007 77.9816 29.4237 77.9816 29.0821C77.9816 28.7404 78.2555 28.4635 78.5933 28.4635C78.9311 28.4635 79.2049 28.7404 79.2049 29.0821Z" fill="#CFFF5C"/>
<path d="M66.9725 29.0821C66.9725 29.4237 66.6986 29.7007 66.3609 29.7007C66.0231 29.7007 65.7492 29.4237 65.7492 29.0821C65.7492 28.7404 66.0231 28.4635 66.3609 28.4635C66.6986 28.4635 66.9725 28.7404 66.9725 29.0821Z" fill="#CFFF5C"/>
</svg>
